<svg id="Layer_1" data-name="Layer 1" xmlns="http://www.w3.org/2000/svg" viewBox="0 0 1024 1024"><defs><style>.cls-1{fill:#68c7bd;}.cls-2{fill:#8062aa;}.cls-3,.cls-4{fill:#fff;opacity:0.5;}.cls-4{stroke:#fff;stroke-linecap:round;stroke-linejoin:round;stroke-width:1.35px;}</style></defs><path class="cls-1" d="M515,535.57l.3.68Z"/><path class="cls-1" d="M515.33,536.25c.09.21.2.44.31.71Z"/><path class="cls-1" d="M515.76,537.23c.13.28.26.59.41.94Z"/><path class="cls-1" d="M516.17,538.17c.26.57.55,1.23.88,2Z"/><path class="cls-1" d="M517.05,540.16c.27.6.56,1.27.88,2Z"/><path class="cls-1" d="M519,544.67l-1.1-2.5c.25.55.5,1.13.78,1.76Z"/><path class="cls-2" d="M650,557.68l.11.25s26.5-35.39-24.66-19.6a19.91,19.91,0,0,0-9.4-21.69l-221-127.58a19.93,19.93,0,0,0-21.48,1.06c-2-10.34-11.76-54.42-28.63-17.12,0,0-19.22,1.56-11.71,20.83.07.2.15.4.23.6l0-.11S307.05,429.6,357.92,414a19.93,19.93,0,0,0,8.19,25.32l221,127.58a19.93,19.93,0,0,0,23.34-2.57c2.73,13.11,12.32,50,28.19,14.94,0,0,19.22-1.55,11.72-20.83C650.24,558.17,650.14,557.92,650,557.68ZM333.66,394.75c.06.13.13.3.21.49C333.79,395.07,333.72,394.91,333.66,394.75Zm1,2.33,1.58,3.59C335.83,399.71,335.31,398.52,334.68,397.08Zm1.76,4c.32.72.61,1.39.84,1.92Zm.86,2c.11.24.21.46.28.64Zm309,146.21c.09.21.2.44.31.71Zm1.72,3.91-.88-2-.41-.94c.13.28.26.59.41.94.26.57.55,1.23.88,2,.27.6.56,1.27.88,2,.25.55.5,1.13.78,1.76l.32.74-1.1-2.5Z"/><rect class="cls-3" x="371.38" y="454.26" width="250.17" height="32.85" rx="14.63" transform="matrix(0.87, 0.5, -0.5, 0.87, 301.85, -185.17)"/><path class="cls-4" d="M358.85,382s19.41,8.69,3.78,24.28C362.63,406.28,370.6,393.29,358.85,382Z"/></svg>