<svg id="Layer_1" data-name="Layer 1" xmlns="http://www.w3.org/2000/svg" viewBox="0 0 1024 1024"><defs><style>.cls-1{fill:#d6a46f;opacity:0.9;}.cls-2{fill:#e261a4;}.cls-3{fill:#fff;}.cls-11,.cls-13,.cls-4,.cls-6{fill:#37b8ea;}.cls-10,.cls-11,.cls-12,.cls-13,.cls-14,.cls-15,.cls-16,.cls-17,.cls-4,.cls-5,.cls-6,.cls-7,.cls-8,.cls-9{stroke:#e6e7e8;stroke-miterlimit:10;}.cls-4{stroke-width:0.43px;}.cls-12,.cls-5{fill:#fde441;}.cls-5{stroke-width:0.5px;}.cls-6{stroke-width:0.4px;}.cls-14,.cls-16,.cls-7,.cls-9{fill:#9063a8;}.cls-7{stroke-width:0.41px;}.cls-15,.cls-8{fill:#68c7bd;}.cls-8,.cls-9{stroke-width:0.31px;}.cls-10,.cls-17{fill:#8062aa;}.cls-10{stroke-width:0.39px;}.cls-11{stroke-width:0.44px;}.cls-12{stroke-width:0.51px;}.cls-13{stroke-width:0.41px;}.cls-14{stroke-width:0.42px;}.cls-15,.cls-16{stroke-width:0.32px;}.cls-17{stroke-width:0.4px;}</style></defs><circle class="cls-1" cx="648" cy="558" r="219"/><path class="cls-2" d="M841.71,542.61a65.34,65.34,0,0,0-18.43-45.84,67.19,67.19,0,0,0,.4-7.41c0-35.3-27.2-63.91-60.76-63.91l-1.26,0c-5.44-29.42-30.07-51.63-59.64-51.63a58.81,58.81,0,0,0-39.4,15.25,59.36,59.36,0,0,0-45.26-21.26c-26.37,0-48.82,17.67-57.22,42.36a57.86,57.86,0,0,0-12.69-1.4c-33.56,0-60.77,28.61-60.77,63.91a67.32,67.32,0,0,0,.7,9.7c-17.15,11.3-28.55,31.35-28.55,54.2A66,66,0,0,0,467,568.55a66.07,66.07,0,0,0-8.13,32c0,30.6,20.45,56.18,47.77,62.44,2.84,32.52,28.85,58,60.51,58a58,58,0,0,0,21-3.93c10.42,19.46,30.24,32.61,53,32.61a59.42,59.42,0,0,0,45.85-22A58.11,58.11,0,0,0,714,734.32c33.55,0,60.76-28.61,60.76-63.9h.14c33.55,0,60.76-28.61,60.76-63.91A66.44,66.44,0,0,0,830.24,580,65.92,65.92,0,0,0,841.71,542.61ZM714,606.51a59.42,59.42,0,0,0-45.85,22,58.29,58.29,0,0,0-48.09-2.75c-8.38-15.64-22.83-27.2-40-31.13a65.89,65.89,0,0,0-7.87-26.05,66.15,66.15,0,0,0,8.13-31.95,67.56,67.56,0,0,0-.7-9.71,63.6,63.6,0,0,0,25-32.65,57.79,57.79,0,0,0,12.69,1.4,58.82,58.82,0,0,0,39.4-15.26A59.36,59.36,0,0,0,702,501.64h1.26a64.78,64.78,0,0,0,17.3,33.56,60.13,60.13,0,0,0,24.92,15.4,62.29,62.29,0,0,0-19.85,18.54,65.87,65.87,0,0,0-11.48,37.38Z"/><circle class="cls-3" cx="631.97" cy="548.28" r="89.17"/><rect class="cls-4" x="688.29" y="452.33" width="59.83" height="12.85" rx="4.82" transform="matrix(0.54, 0.84, -0.84, 0.54, 718.55, -393.47)"/><rect class="cls-5" x="454.46" y="543.97" width="69.57" height="14.94" rx="5.6" transform="translate(-246.52 597.29) rotate(-51.99)"/><rect class="cls-5" x="554.64" y="671.98" width="69.57" height="14.94" rx="5.6" transform="translate(-260.76 385.74) rotate(-30)"/><rect class="cls-5" x="593.6" y="417.08" width="69.57" height="14.94" rx="5.6" transform="translate(-129.72 404.72) rotate(-32.55)"/><rect class="cls-6" x="505.48" y="461.86" width="54.98" height="11.81" rx="4.43" transform="matrix(-0.13, 0.99, -0.99, -0.13, 1064.04, -2.15)"/><rect class="cls-5" x="733.29" y="508.91" width="69.57" height="14.94" rx="5.6" transform="translate(-155.29 453.22) rotate(-30)"/><rect class="cls-7" x="733.99" y="577.19" width="56.59" height="12.15" rx="4.56" transform="translate(575.67 -358.25) rotate(41.37)"/><rect class="cls-5" x="698.23" y="645.82" width="69.57" height="14.94" rx="5.6" transform="translate(-228.44 454.03) rotate(-30)"/><rect class="cls-8" x="629.79" y="690.69" width="42.84" height="9.2" rx="3.45" transform="translate(-256.51 984.34) rotate(-64.54)"/><rect class="cls-9" x="558" y="406.85" width="42.84" height="9.2" rx="3.45" transform="translate(-41.17 757.71) rotate(-64.54)"/><rect class="cls-10" x="488.97" y="620.78" width="54.42" height="11.69" rx="4.38"/><circle class="cls-1" cx="367.1" cy="456.03" r="223"/><path class="cls-2" d="M554,397.21a66.57,66.57,0,0,0-28.49-41.47,69.72,69.72,0,0,0-1.24-7.45c-7.83-35.08-41.22-57.48-74.57-50l-1.24.29c-11.94-28-41.34-44.64-70.73-38.08A59.88,59.88,0,0,0,342,284.38a60.42,60.42,0,0,0-49.7-11.1c-26.2,5.85-44.59,28.39-47.47,54.8a58.91,58.91,0,0,0-12.92,1.42c-33.35,7.45-54,41.92-46.21,77a69.5,69.5,0,0,0,2.84,9.49c-14.53,15-21.42,37.49-16.35,60.2a67.29,67.29,0,0,0,15.17,29.95,67.43,67.43,0,0,0-1,33.56c6.79,30.41,32.79,51.29,61.33,51.45,10,31.7,41.53,51.24,73,44.22a59.09,59.09,0,0,0,20-8.57c14.67,17,37.28,25.69,59.89,20.64a60.47,60.47,0,0,0,40.69-32,59.09,59.09,0,0,0,28.38.63c33.35-7.44,54-41.91,46.21-77l.14,0c33.35-7.44,54-41.91,46.21-77a67.71,67.71,0,0,0-11.31-25.15A67.12,67.12,0,0,0,554,397.21ZM441.28,489a60.48,60.48,0,0,0-40.69,32,59.31,59.31,0,0,0-48.4,7.93c-11.8-13.68-28.73-22-46.66-22.07a67,67,0,0,0-13.6-24.13,67.43,67.43,0,0,0,1-33.56,68.69,68.69,0,0,0-2.85-9.5,64.74,64.74,0,0,0,17.62-38,59,59,0,0,0,12.92-1.42,59.88,59.88,0,0,0,35.77-23.91,60.4,60.4,0,0,0,49.69,11.1c.42-.09.84-.19,1.25-.3A65.91,65.91,0,0,0,432,416.71a61.26,61.26,0,0,0,28.18,9.78,63.17,63.17,0,0,0-15.62,22.83A67,67,0,0,0,441.42,489Z"/><circle class="cls-3" cx="364.69" cy="445.39" r="90.79"/><rect class="cls-11" x="400.08" y="330.74" width="60.93" height="13.08" rx="4.91" transform="translate(363.37 -205.5) rotate(44.87)"/><rect class="cls-12" x="188.14" y="472.58" width="70.84" height="15.21" rx="5.71" transform="translate(-306.1 475.87) rotate(-64.57)"/><rect class="cls-12" x="316.09" y="577.57" width="70.84" height="15.21" rx="5.71" transform="translate(-303.27 392.17) rotate(-42.58)"/><rect class="cls-12" x="298.26" y="315.61" width="70.84" height="15.21" rx="5.71" transform="translate(-130.8 331.66) rotate(-45.13)"/><rect class="cls-13" x="220.45" y="381.32" width="55.98" height="12.02" rx="4.51" transform="translate(610.87 103.79) rotate(84.64)"/><rect class="cls-12" x="457.46" y="375.88" width="70.84" height="15.21" rx="5.71" transform="translate(-129.52 434.64) rotate(-42.58)"/><rect class="cls-14" x="473.15" y="445.05" width="57.63" height="12.38" rx="4.64" transform="translate(279.3 -185.94) rotate(28.78)"/><rect class="cls-12" x="452.99" y="519.72" width="70.84" height="15.21" rx="5.71" transform="translate(-228.03 469.54) rotate(-42.58)"/><rect class="cls-15" x="394.62" y="582.53" width="43.62" height="9.37" rx="3.51" transform="translate(-248.83 862.29) rotate(-77.12)"/><rect class="cls-16" x="260.3" y="316.38" width="43.62" height="9.37" rx="3.51" transform="translate(-93.75 524.52) rotate(-77.12)"/><rect class="cls-17" x="239.29" y="542.97" width="55.41" height="11.9" rx="4.46" transform="translate(-113.18 71.35) rotate(-12.58)"/><circle class="cls-3" cx="258.42" cy="293.03" r="59.5"/><circle class="cls-3" cx="192.45" cy="340.85" r="59.5"/></svg>