<svg id="Layer_1" data-name="Layer 1" xmlns="http://www.w3.org/2000/svg" viewBox="0 0 1024 1024"><defs><style>.cls-1{fill:#fde441;}.cls-2,.cls-3{fill:#fff;opacity:0.5;}.cls-3{stroke:#fff;stroke-linecap:round;stroke-linejoin:round;stroke-width:1.35px;}</style></defs><path class="cls-1" d="M633,671.68l.11.25s26.5-35.39-24.66-19.6a19.91,19.91,0,0,0-9.4-21.69l-221-127.58a19.93,19.93,0,0,0-21.48,1.06c-2-10.34-11.76-54.42-28.63-17.12,0,0-19.22,1.56-11.71,20.83.07.2.15.4.23.6l0-.11S290.05,543.6,340.92,528a19.93,19.93,0,0,0,8.19,25.32l221,127.58a19.93,19.93,0,0,0,23.34-2.57c2.73,13.11,12.32,50,28.19,14.94,0,0,19.22-1.55,11.72-20.83C633.24,672.17,633.14,671.92,633,671.68ZM316.66,508.75c.06.13.13.3.21.49C316.79,509.07,316.72,508.91,316.66,508.75Zm1,2.33,1.58,3.59C318.83,513.71,318.31,512.52,317.68,511.08Zm1.76,4c.32.72.61,1.39.84,1.92Zm.86,2c.11.24.21.46.28.64Zm309,146.21c.09.21.2.44.31.71Zm1.72,3.91-.88-2-.41-.94c.13.28.26.59.41.94.26.57.55,1.23.88,2,.27.6.56,1.27.88,2,.25.55.5,1.13.78,1.76l.32.74-1.1-2.5Z"/><rect class="cls-2" x="354.38" y="568.26" width="250.17" height="32.85" rx="14.63" transform="translate(356.58 -161.4) rotate(30)"/><path class="cls-3" d="M341.85,496s19.41,8.69,3.78,24.28C345.63,520.28,353.6,507.29,341.85,496Z"/></svg>