<svg id="Layer_1" data-name="Layer 1" xmlns="http://www.w3.org/2000/svg" viewBox="0 0 1024 1024"><defs><style>.cls-1{fill:#8062aa;}.cls-2{fill:#68c7bd;}.cls-3{fill:#fff;stroke-linecap:round;stroke-linejoin:round;stroke-width:2.37px;}.cls-3,.cls-4{stroke:#fff;opacity:0.5;}.cls-4{fill:none;stroke-miterlimit:10;stroke-width:1.99px;}</style></defs><path class="cls-1" d="M599.65,557.17a4.71,4.71,0,0,1-.12.54h-.17l-.56-.5.85-.05c8.5-35.25-14.36-74.9-55-92.27-32.44-13.86-67.29-9.7-90,8-4.77-23-21.61-87.79-49.46-26.22,0,0-33.72,2.73-20.54,36.54.1.3.22.6.33.89v0s-47.16,63,45.24,33.75c-2.65,32.58,19.6,66.78,56.58,82.58,25.88,11,53.29,10.66,74.85,1l.54-.23c0,.27,0,.55,0,.83-.29,83.29,44.72,25.29,44.72,25.29h0l.9.09c36.11,3.74,29.81-29.49,29.81-29.49C689.15,555.07,623.53,555.72,599.65,557.17ZM391.78,499.73a8.19,8.19,0,0,1,.35.8Z"/><path class="cls-2" d="M457.12,557.12c.1.22.22.52.36.86C457.34,557.68,457.22,557.4,457.12,557.12Z"/><path class="cls-2" d="M458.91,561.2c.85,1.95,1.86,4.23,2.77,6.3C460.92,565.82,460,563.73,458.91,561.2Z"/><path class="cls-2" d="M462,568.22l1.48,3.37Z"/><path class="cls-2" d="M463.5,571.66c.19.42.37.81.49,1.12Z"/><path class="cls-3" d="M427.54,449s34.06,15.25,6.63,42.6C434.17,491.6,448.16,468.81,427.54,449Z"/><path class="cls-2" d="M562.14,601.23c0,.27,0,.55,0,.83l-.53-.6Z"/><path class="cls-4" d="M472.79,584.65s40,26.71,84.34,12.07"/></svg>