<svg id="Layer_1" data-name="Layer 1" xmlns="http://www.w3.org/2000/svg" viewBox="0 0 1024 1024"><defs><style>.cls-1{fill:#68c7bd;}.cls-2,.cls-3{fill:#fff;opacity:0.5;}.cls-3{stroke:#fff;stroke-linecap:round;stroke-linejoin:round;stroke-width:1.35px;}.cls-4{fill:#8062aa;}.cls-5{fill:#e261a4;}.cls-6{fill:#fde441;}.cls-7{fill:#37b8ea;}</style></defs><path class="cls-1" d="M388.61,343.05s10,61.19,29,19.19c0,0,19.22-1.55,11.72-20.83-.19-.48-.4-1-.62-1.48-9.1-20.69.43,1,.43,1s27.47-36.69-27.53-18.69Z"/><rect class="cls-1" x="122.67" y="231.96" width="294.85" height="58" rx="19.84" transform="translate(166.67 -100.08) rotate(30)"/><rect class="cls-2" x="145.38" y="236.26" width="250.17" height="32.85" rx="14.63" transform="translate(162.58 -101.38) rotate(30)"/><path class="cls-1" d="M153,175.19S143,114,124,156c0,0-19.22,1.56-11.71,20.83.18.49.39,1,.61,1.49,9.1,20.68-.43-1-.43-1S85,214,140,196Z"/><path class="cls-3" d="M139.85,162s19.41,8.69,3.78,24.28C143.63,186.28,151.6,173.29,139.85,162Z"/><path class="cls-1" d="M513.66,195.75c.06.13.13.3.21.49C513.79,196.07,513.72,195.91,513.66,195.75Z"/><path class="cls-1" d="M514.68,198.08l1.58,3.59C515.83,200.71,515.31,199.52,514.68,198.08Z"/><path class="cls-1" d="M516.44,202.08c.32.72.61,1.39.84,1.92C517.07,203.52,516.79,202.89,516.44,202.08Z"/><path class="cls-1" d="M517.3,204c.11.24.21.46.28.64Z"/><path class="cls-1" d="M826,349.57l.3.68Z"/><path class="cls-1" d="M826.33,350.25c.09.21.2.44.31.71Z"/><path class="cls-1" d="M826.76,351.23c.13.28.26.59.41.94Z"/><path class="cls-1" d="M827.17,352.17c.26.57.55,1.23.88,2Z"/><path class="cls-1" d="M828.05,354.16c.27.6.56,1.27.88,2Z"/><path class="cls-1" d="M830,358.67l-1.1-2.5c.25.55.5,1.13.78,1.76Z"/><path class="cls-3" d="M540.85,180s19.41,8.69,3.78,24.28C544.63,204.28,552.6,191.29,540.85,180Z"/><path class="cls-4" d="M961,371.68l.11.25s26.5-35.39-24.66-19.6a19.91,19.91,0,0,0-9.4-21.69l-221-127.58a19.93,19.93,0,0,0-21.48,1.06c-2-10.34-11.76-54.42-28.63-17.12,0,0-19.22,1.56-11.71,20.83.07.2.15.4.23.6l0-.11S618.05,243.6,668.92,228a19.93,19.93,0,0,0,8.19,25.32l221,127.58a19.93,19.93,0,0,0,23.34-2.57c2.73,13.11,12.32,50,28.19,14.94,0,0,19.22-1.55,11.72-20.83C961.24,372.17,961.14,371.92,961,371.68ZM644.66,208.75c.06.13.13.3.21.49C644.79,209.07,644.72,208.91,644.66,208.75Zm1,2.33,1.58,3.59C646.83,213.71,646.31,212.52,645.68,211.08Zm1.76,4c.32.72.61,1.39.84,1.92C648.07,216.52,647.79,215.89,647.44,215.08Zm.86,2c.11.24.21.46.28.64Zm309,146.21c.09.21.2.44.31.71Zm1.72,3.91-.88-2-.41-.94c.13.28.26.59.41.94.26.57.55,1.23.88,2,.27.6.56,1.27.88,2,.25.55.5,1.13.78,1.76l.32.74-1.1-2.5Z"/><rect class="cls-2" x="682.38" y="268.26" width="250.17" height="32.85" rx="14.63" transform="matrix(0.87, 0.5, -0.5, 0.87, 250.52, -365.59)"/><path class="cls-3" d="M669.85,196s19.41,8.69,3.78,24.28C673.63,220.28,681.6,207.29,669.85,196Z"/><path class="cls-1" d="M786,561.57l.3.68Z"/><path class="cls-1" d="M786.33,562.25c.09.21.2.44.31.71Z"/><path class="cls-1" d="M786.76,563.23c.13.28.26.59.41.94Z"/><path class="cls-1" d="M787.17,564.17c.26.57.55,1.23.88,2Z"/><path class="cls-1" d="M788.05,566.16c.27.6.56,1.27.88,2Z"/><path class="cls-1" d="M790,570.67l-1.1-2.5c.25.55.5,1.13.78,1.76Z"/><path class="cls-5" d="M921,583.68l.11.25s26.5-35.39-24.66-19.6a19.91,19.91,0,0,0-9.4-21.69l-221-127.58a19.93,19.93,0,0,0-21.48,1.06c-2-10.34-11.76-54.42-28.63-17.12,0,0-19.22,1.56-11.71,20.83.07.2.15.4.23.6l0-.11S578.05,455.6,628.92,440a19.93,19.93,0,0,0,8.19,25.32l221,127.58a19.93,19.93,0,0,0,23.34-2.57c2.73,13.11,12.32,50,28.19,14.94,0,0,19.22-1.55,11.72-20.83C921.24,584.17,921.14,583.92,921,583.68ZM604.66,420.75c.06.13.13.3.21.49C604.79,421.07,604.72,420.91,604.66,420.75Zm1,2.33,1.58,3.59C606.83,425.71,606.31,424.52,605.68,423.08Zm1.76,4c.32.72.61,1.39.84,1.92C608.07,428.52,607.79,427.89,607.44,427.08Zm.86,2c.11.24.21.46.28.64Zm309,146.21c.09.21.2.44.31.71Zm1.72,3.91-.88-2-.41-.94c.13.28.26.59.41.94.26.57.55,1.23.88,2,.27.6.56,1.27.88,2,.25.55.5,1.13.78,1.76l.32.74-1.1-2.5Z"/><rect class="cls-2" x="642.38" y="480.26" width="250.17" height="32.85" rx="14.63" transform="matrix(0.87, 0.5, -0.5, 0.87, 351.16, -317.19)"/><path class="cls-3" d="M629.85,408s19.41,8.69,3.78,24.28C633.63,432.28,641.6,419.29,629.85,408Z"/><path class="cls-6" d="M895,774.68l.11.25s26.5-35.39-24.66-19.6a19.91,19.91,0,0,0-9.4-21.69l-221-127.58a19.93,19.93,0,0,0-21.48,1.06c-2-10.34-11.76-54.42-28.63-17.12,0,0-19.22,1.56-11.71,20.83.07.2.15.4.23.6l0-.11S552.05,646.6,602.92,631a19.93,19.93,0,0,0,8.19,25.32l221,127.58a19.93,19.93,0,0,0,23.34-2.57c2.73,13.11,12.32,50,28.19,14.94,0,0,19.22-1.55,11.72-20.83C895.24,775.17,895.14,774.92,895,774.68ZM578.66,611.75c.06.13.13.3.21.49C578.79,612.07,578.72,611.91,578.66,611.75Zm1,2.33,1.58,3.59C580.83,616.71,580.31,615.52,579.68,614.08Zm1.76,4c.32.72.61,1.39.84,1.92C582.07,619.52,581.79,618.89,581.44,618.08Zm.86,2c.11.24.21.46.28.64Zm309,146.21c.09.21.2.44.31.71Zm1.72,3.91-.88-2-.41-.94c.13.28.26.59.41.94.26.57.55,1.23.88,2,.27.6.56,1.27.88,2,.25.55.5,1.13.78,1.76l.32.74-1.1-2.5Z"/><rect class="cls-2" x="616.38" y="671.26" width="250.17" height="32.85" rx="14.63" transform="matrix(0.87, 0.5, -0.5, 0.87, 443.18, -278.6)"/><path class="cls-3" d="M603.85,599s19.41,8.69,3.78,24.28C607.63,623.28,615.6,610.29,603.85,599Z"/><path class="cls-7" d="M394,604.68l.11.25s26.5-35.39-24.66-19.6a19.91,19.91,0,0,0-9.4-21.69l-221-127.58a19.93,19.93,0,0,0-21.48,1.06c-2-10.34-11.76-54.42-28.63-17.12,0,0-19.22,1.56-11.71,20.83.07.2.15.4.23.6l0-.11S51.05,476.6,101.92,461a19.93,19.93,0,0,0,8.19,25.32l221,127.58a19.93,19.93,0,0,0,23.34-2.57c2.73,13.11,12.32,50,28.19,14.94,0,0,19.22-1.55,11.72-20.83C394.24,605.17,394.14,604.92,394,604.68ZM77.66,441.75l.21.49C77.79,442.07,77.72,441.91,77.66,441.75Zm1,2.33,1.58,3.59C79.83,446.71,79.31,445.52,78.68,444.08Zm1.76,4c.32.72.61,1.39.84,1.92Zm.86,2c.11.24.21.46.28.64Zm309,146.21c.09.21.2.44.31.71Zm1.72,3.91-.88-2-.41-.94c.13.28.26.59.41.94.26.57.55,1.23.88,2,.27.6.56,1.27.88,2,.25.55.5,1.13.78,1.76l.32.74-1.1-2.5Z"/><rect class="cls-2" x="115.38" y="501.26" width="250.17" height="32.85" rx="14.63" transform="translate(291.06 -50.87) rotate(30)"/><path class="cls-3" d="M102.85,429s19.41,8.69,3.78,24.28C106.63,453.28,114.6,440.29,102.85,429Z"/><path class="cls-3" d="M82.85,682s19.41,8.69,3.78,24.28C86.63,706.28,94.6,693.29,82.85,682Z"/></svg>