<svg id="Layer_1" data-name="Layer 1" xmlns="http://www.w3.org/2000/svg" viewBox="0 0 1024 1024"><defs><style>.cls-1{fill:#d6a46f;opacity:0.9;}.cls-2{fill:#e261a4;}.cls-3{fill:#fff;}.cls-4,.cls-6{fill:#37b8ea;}.cls-10,.cls-4,.cls-5,.cls-6,.cls-7,.cls-8,.cls-9{stroke:#e6e7e8;stroke-miterlimit:10;}.cls-4{stroke-width:0.78px;}.cls-5{fill:#fde441;stroke-width:0.91px;}.cls-6{stroke-width:0.72px;}.cls-7,.cls-9{fill:#9063a8;}.cls-7{stroke-width:0.74px;}.cls-8{fill:#68c7bd;}.cls-8,.cls-9{stroke-width:0.56px;}.cls-10{fill:#8062aa;stroke-width:0.71px;}</style></defs><circle class="cls-1" cx="512.5" cy="525.5" r="393.5"/><path class="cls-2" d="M857,496.05a117.45,117.45,0,0,0-33.11-82.37,121.9,121.9,0,0,0,.73-13.32c0-63.41-48.89-114.82-109.18-114.82-.76,0-1.51,0-2.26,0-9.78-52.87-54-92.77-107.17-92.77a105.62,105.62,0,0,0-70.8,27.41c-20-23.45-49-38.21-81.32-38.21-47.38,0-87.72,31.75-102.82,76.12a104,104,0,0,0-22.8-2.51c-60.29,0-109.18,51.41-109.18,114.82a122.08,122.08,0,0,0,1.25,17.44c-30.81,20.3-51.3,56.33-51.3,97.38a118.77,118.77,0,0,0,14.61,57.42A118.73,118.73,0,0,0,169,600.08c0,55,36.76,100.95,85.84,112.19,5.1,58.44,51.83,104.21,108.72,104.21a104.23,104.23,0,0,0,37.77-7.06c18.72,35,54.34,58.58,95.21,58.58,32.88,0,62.37-15.29,82.39-39.47a104.43,104.43,0,0,0,48.63,12c60.3,0,109.18-51.41,109.18-114.82H737c60.29,0,109.18-51.41,109.18-114.83a119.53,119.53,0,0,0-9.82-47.66A118.31,118.31,0,0,0,857,496.05ZM627.56,610.87c-32.88,0-62.36,15.29-82.38,39.47a104.61,104.61,0,0,0-86.41-4.93c-15-28.11-41-48.89-71.87-55.95a118.14,118.14,0,0,0-14.15-46.79,118.77,118.77,0,0,0,14.61-57.42,120.74,120.74,0,0,0-1.25-17.44,114.2,114.2,0,0,0,44.94-58.67,105,105,0,0,0,93.6-24.91c20,23.46,49,38.21,81.32,38.21.75,0,1.51,0,2.26,0a116.43,116.43,0,0,0,31.1,60.32A108.09,108.09,0,0,0,684.1,510.4a111.68,111.68,0,0,0-35.68,33.31,118.31,118.31,0,0,0-20.61,67.16Z"/><circle class="cls-3" cx="512.44" cy="506.25" r="160.21"/><rect class="cls-4" x="613.65" y="333.84" width="107.51" height="23.09" rx="8.66" transform="matrix(0.54, 0.84, -0.84, 0.54, 599.51, -403.02)"/><rect class="cls-5" x="193.5" y="498.5" width="125" height="26.85" rx="10.07" transform="translate(-304.98 398.34) rotate(-51.99)"/><rect class="cls-5" x="373.5" y="728.5" width="125" height="26.85" rx="10.07" transform="translate(-312.55 317.4) rotate(-30)"/><rect class="cls-5" x="443.5" y="270.5" width="125" height="26.85" rx="10.07" transform="translate(-73.28 316.8) rotate(-32.55)"/><rect class="cls-6" x="285.17" y="350.97" width="98.78" height="21.21" rx="7.96" transform="translate(735.33 75.13) rotate(97.22)"/><rect class="cls-5" x="694.5" y="435.5" width="125" height="26.85" rx="10.07" transform="translate(-123.04 438.64) rotate(-30)"/><rect class="cls-7" x="695.75" y="558.18" width="101.69" height="21.84" rx="8.19" transform="translate(562.39 -351.42) rotate(41.37)"/><rect class="cls-5" x="631.5" y="681.5" width="125" height="26.85" rx="10.07" transform="translate(-254.48 440.1) rotate(-30)"/><rect class="cls-8" x="508.53" y="762.12" width="76.97" height="16.53" rx="6.2" transform="translate(-383.71 933.08) rotate(-64.54)"/><rect class="cls-9" x="379.53" y="252.12" width="76.97" height="16.53" rx="6.2" transform="translate(3.21 525.86) rotate(-64.54)"/><rect class="cls-10" x="255.5" y="636.5" width="97.78" height="21" rx="7.87"/></svg>