<svg id="Layer_1" data-name="Layer 1" xmlns="http://www.w3.org/2000/svg" viewBox="0 0 1024 1024"><defs><style>.cls-1{fill:#68c7bd;}.cls-2{fill:#bde4e0;}.cls-3{opacity:0.5;}.cls-4{fill:#fff;}</style></defs><ellipse class="cls-1" cx="517.31" cy="591.57" rx="65.45" ry="170.42" transform="translate(-109.76 1065.23) rotate(-85.9)"/><ellipse class="cls-2" cx="520.92" cy="541.06" rx="77.94" ry="170.42" transform="translate(-56.02 1021.93) rotate(-85.9)"/><ellipse class="cls-1" cx="519.58" cy="502.83" rx="65.45" ry="170.42" transform="translate(-19.13 985.1) rotate(-85.9)"/><g class="cls-3"><path class="cls-4" d="M628.44,465.44c17.15,6.07,38.78,17.49,48.08,33.95,6.65,11.7,2.92,24.16-7,32.61-22.83,19.28-69.82,24.52-99,26.14a368.6,368.6,0,0,1-43.21-.35.38.38,0,0,1-.39-.41.37.37,0,0,1,.34-.34C563.69,554,636.85,548.76,665,526.58,684.1,511,666.7,492.2,652.2,481.29a162.24,162.24,0,0,0-24.08-15.17.37.37,0,0,1-.16-.51.38.38,0,0,1,.48-.17Z"/></g></svg>