<?xml version="1.0" encoding="UTF-8" standalone="no"?>
<!DOCTYPE svg PUBLIC "-//W3C//DTD SVG 1.1//EN" "http://www.w3.org/Graphics/SVG/1.1/DTD/svg11.dtd">

<!-- Created with Vectornator (http://vectornator.io/) -->
<svg height="100%" stroke-miterlimit="10" style="fill-rule:nonzero;clip-rule:evenodd;stroke-linecap:round;stroke-linejoin:round;" version="1.1" viewBox="0 0 1024 1024" width="100%" xml:space="preserve" xmlns="http://www.w3.org/2000/svg" xmlns:vectornator="http://vectornator.io" xmlns:xlink="http://www.w3.org/1999/xlink">
<metadata>
<vectornator:setting key="IsTimeLapseWatermarkDisabled" value="false"/>
<vectornator:setting key="UndoHistoryDisabled" value="true"/>
<vectornator:setting key="VNDimensionsVisible" value="true"/>
<vectornator:setting key="VNSnapToGuides" value="true"/>
<vectornator:setting key="WDCMYKEnabledKey" value="false"/>
<vectornator:setting key="WDDisplayWhiteBackground" value="false"/>
<vectornator:setting key="WDDynamicGuides" value="false"/>
<vectornator:setting key="WDGuidesVisible" value="true"/>
<vectornator:setting key="WDIsolateActiveLayer" value="false"/>
<vectornator:setting key="WDOutlineMode" value="false"/>
<vectornator:setting key="WDRulersVisible" value="true"/>
<vectornator:setting key="WDSnapToEdges" value="false"/>
<vectornator:setting key="WDSnapToGrid" value="false"/>
<vectornator:setting key="WDSnapToPoints" value="false"/>
<vectornator:setting key="WDUnits" value="Points"/>
</metadata>
<defs/>
<g id="Untitled" vectornator:layerName="Untitled">
<path d="M384.79 589.89C384.9 590.11 385.02 590.41 385.16 590.75C385 590.45 384.9 590.17 384.79 589.89Z" fill="#68c7bd" fill-rule="evenodd" opacity="1" stroke="none"/>
<path d="M386.58 594L389.35 600.3C388.6 598.59 387.69 596.5 386.58 594Z" fill="#68c7bd" fill-rule="evenodd" opacity="1" stroke="none"/>
<path d="M389.67 601C390.23 602.27 390.74 603.44 391.14 604.37C390.77 603.52 390.28 602.41 389.67 601Z" fill="#68c7bd" fill-rule="evenodd" opacity="1" stroke="none"/>
<path d="M391.18 604.43C391.37 604.85 391.55 605.24 391.67 605.55C391.53 605.24 391.37 604.87 391.18 604.43Z" fill="#68c7bd" fill-rule="evenodd" opacity="1" stroke="none"/>
<path d="M489.82 634C489.82 634.28 489.82 634.56 489.82 634.84L489.29 634.24L489.82 634Z" fill="#68c7bd" fill-rule="evenodd" opacity="1" stroke="none"/>
<path d="M398.48 618.09C398.48 618.09 438.48 644.79 482.82 630.16" fill="none" fill-rule="evenodd" opacity="1" stroke="none"/>
<path d="M813.772 489.816C813.772 490.459 813.522 491.137 813.343 491.744L812.594 491.744L810.595 489.959L813.665 489.959C843.973 364.122 762.366 222.578 617.324 160.57C501.518 111.092 377.145 125.943 296.038 189.129C278.974 107.023 218.858-124.267 119.474 95.5277C119.474 95.5277-0.901194 105.273 46.1136 225.97C46.4706 227.041 46.899 228.112 47.3273 229.147L47.3273 229.147C47.3273 229.147-121.026 454.047 208.863 349.629C199.402 465.934 278.831 588.023 410.844 644.426C503.196 683.694 601.045 682.481 678.046 647.996L679.974 647.139C679.974 648.139 679.974 649.138 679.974 650.138C678.939 947.47 839.582 740.419 839.582 740.419L839.582 740.419L842.83 740.74C971.701 754.092 949.247 635.466 949.247 635.466C1133.27 482.32 899.02 484.64 813.772 489.816ZM71.7093 284.765C72.2091 285.8 72.6375 286.8 72.9587 287.621C72.5661 286.8 72.1734 285.836 71.7093 284.765Z" fill="#37b8ea" fill-rule="evenodd" opacity="1" stroke="none"/>
<path d="M304.927 489.638C305.32 490.423 305.748 491.494 306.248 492.708C305.677 491.637 305.32 490.637 304.927 489.638Z" fill="#68c7bd" fill-rule="evenodd" opacity="1" stroke="none"/>
<path d="M311.317 504.31L321.205 526.8C318.528 520.696 315.279 513.235 311.317 504.31Z" fill="#68c7bd" fill-rule="evenodd" opacity="1" stroke="none"/>
<path d="M322.348 529.299C324.347 533.833 326.167 538.009 327.595 541.329C326.275 538.295 324.525 534.332 322.348 529.299Z" fill="#68c7bd" fill-rule="evenodd" opacity="1" stroke="none"/>
<path d="M327.738 541.543C328.416 543.043 329.059 544.435 329.487 545.542C328.988 544.435 328.416 543.114 327.738 541.543Z" fill="#68c7bd" fill-rule="evenodd" opacity="1" stroke="none"/>
<path d="M199.331 103.667C199.331 103.667 320.955 158.107 223.035 255.742C223.035 255.742 272.977 174.385 199.331 103.667Z" fill="#ffffff" fill-rule="evenodd" opacity="1" stroke="none"/>
<path d="M679.867 647.104C679.867 648.103 679.867 649.103 679.867 650.102L677.975 647.96L679.867 647.104Z" fill="#68c7bd" fill-rule="evenodd" opacity="1" stroke="none"/>
<path d="M353.798 590.307C353.798 590.307 496.592 685.622 654.878 633.395" fill="none" fill-rule="evenodd" opacity="1" stroke="none"/>
</g>
</svg>
