<svg id="Layer_1" data-name="Layer 1" xmlns="http://www.w3.org/2000/svg" viewBox="0 0 1024 1024"><defs><style>.cls-1,.cls-3,.cls-6{fill:#fff;}.cls-1,.cls-2,.cls-3,.cls-4,.cls-5,.cls-6{stroke:#e6e7e8;stroke-miterlimit:10;}.cls-2{fill:#68c7bd;}.cls-2,.cls-4,.cls-5{opacity:0.9;}.cls-3,.cls-6{stroke-width:1.08px;}.cls-3{opacity:0.2;}.cls-4{fill:#e261a4;}.cls-5{fill:#fde441;}.cls-6{opacity:0.3;}</style></defs><rect class="cls-1" x="319.53" y="515" width="14.75" height="386" rx="7.37" transform="translate(-257.34 191.49) rotate(-23.74)"/><path class="cls-2" d="M308.53,417A101.51,101.51,0,0,1,265,534.86a175.68,175.68,0,0,0,6.45,21.22l-20.37,8.68s-4.53-11.86-9.47-19.4A101.5,101.5,0,1,1,308.53,417Z"/><ellipse class="cls-3" cx="233.13" cy="387.85" rx="19" ry="39.67" transform="translate(-210.12 478.97) rotate(-70.61)"/><rect class="cls-1" x="506.35" y="525.08" width="14.75" height="386" rx="7.37" transform="translate(519.62 -164.82) rotate(35.96)"/><path class="cls-4" d="M755.73,555.39A101.51,101.51,0,0,1,632,577.26a174.73,174.73,0,0,0-15.06,16.28l-17.78-13.22s8-9.89,12-18a101.5,101.5,0,1,1,144.63-7Z"/><ellipse class="cls-3" cx="742.19" cy="476.2" rx="19" ry="39.67" transform="translate(-95.7 201.34) rotate(-14.52)"/><rect class="cls-1" x="409.2" y="494.39" width="14.75" height="386" rx="7.37" transform="translate(57.14 -31.53) rotate(4.65)"/><path class="cls-5" d="M538.79,422.62a101.53,101.53,0,0,1-94.37,83A174.81,174.81,0,0,0,440,527.36L418,525.31s1.66-12.59.9-21.57a101.5,101.5,0,1,1,119.94-81.12Z"/><ellipse class="cls-6" cx="487.13" cy="366.85" rx="19" ry="39.67" transform="translate(-118.16 292.72) rotate(-30)"/></svg>