<svg id="Layer_1" data-name="Layer 1" xmlns="http://www.w3.org/2000/svg" viewBox="0 0 1024 1024"><defs><style>.cls-1{fill:#68c7bd;}.cls-2,.cls-3{fill:#fff;opacity:0.5;}.cls-3{stroke:#fff;stroke-linecap:round;stroke-linejoin:round;stroke-width:1.35px;}.cls-4{fill:#8062aa;}.cls-5{fill:#e261a4;}.cls-6{fill:#fde441;}.cls-7{fill:#37b8ea;}</style></defs><path class="cls-1" d="M393.61,308.05s10,61.19,29,19.19c0,0,19.22-1.55,11.72-20.83-.19-.48-.4-1-.62-1.48-9.1-20.69.43,1,.43,1s27.47-36.69-27.53-18.69Z"/><rect class="cls-1" x="127.67" y="196.96" width="294.85" height="58" rx="19.84" transform="matrix(0.87, 0.5, -0.5, 0.87, 149.84, -107.27)"/><rect class="cls-2" x="150.38" y="201.26" width="250.17" height="32.85" rx="14.63" transform="translate(145.75 -108.57) rotate(30)"/><path class="cls-1" d="M158,140.19S148,79,129,121c0,0-19.22,1.56-11.71,20.83.18.49.39,1,.61,1.49,9.1,20.68-.43-1-.43-1S90,179,145,161Z"/><path class="cls-3" d="M144.85,127s19.41,8.69,3.78,24.28C148.63,151.28,156.6,138.29,144.85,127Z"/><path class="cls-1" d="M518.66,160.75c.06.13.13.3.21.49C518.79,161.07,518.72,160.91,518.66,160.75Z"/><path class="cls-1" d="M519.68,163.08l1.58,3.59C520.83,165.71,520.31,164.52,519.68,163.08Z"/><path class="cls-1" d="M521.44,167.08c.32.72.61,1.39.84,1.92C522.07,168.52,521.79,167.89,521.44,167.08Z"/><path class="cls-1" d="M522.3,169c.11.24.21.46.28.64Z"/><path class="cls-1" d="M831,314.57l.3.68Z"/><path class="cls-1" d="M831.33,315.25c.09.21.2.44.31.71Z"/><path class="cls-1" d="M831.76,316.23c.13.28.26.59.41.94Z"/><path class="cls-1" d="M832.17,317.17c.26.57.55,1.23.88,2Z"/><path class="cls-1" d="M833.05,319.16c.27.6.56,1.27.88,2Z"/><path class="cls-1" d="M835,323.67l-1.1-2.5c.25.55.5,1.13.78,1.76Z"/><path class="cls-3" d="M545.85,145s19.41,8.69,3.78,24.28C549.63,169.28,557.6,156.29,545.85,145Z"/><path class="cls-4" d="M966,336.68l.11.25s26.5-35.39-24.66-19.6a19.91,19.91,0,0,0-9.4-21.69l-221-127.58a19.93,19.93,0,0,0-21.48,1.06c-2-10.34-11.76-54.42-28.63-17.12,0,0-19.22,1.56-11.71,20.83.07.2.15.4.23.6l0-.11S623.05,208.6,673.92,193a19.93,19.93,0,0,0,8.19,25.32l221,127.58a19.93,19.93,0,0,0,23.34-2.57c2.73,13.11,12.32,50,28.19,14.94,0,0,19.22-1.55,11.72-20.83C966.24,337.17,966.14,336.92,966,336.68ZM649.66,173.75c.06.13.13.3.21.49C649.79,174.07,649.72,173.91,649.66,173.75Zm1,2.33,1.58,3.59C651.83,178.71,651.31,177.52,650.68,176.08Zm1.76,4c.32.72.61,1.39.84,1.92C653.07,181.52,652.79,180.89,652.44,180.08Zm.86,2c.11.24.21.46.28.64Zm309,146.21c.09.21.2.44.31.71Zm1.72,3.91-.88-2-.41-.94c.13.28.26.59.41.94.26.57.55,1.23.88,2,.27.6.56,1.27.88,2,.25.55.5,1.13.78,1.76l.32.74-1.1-2.5Z"/><rect class="cls-2" x="687.38" y="233.26" width="250.17" height="32.85" rx="14.63" transform="translate(233.69 -372.78) rotate(30)"/><path class="cls-3" d="M674.85,161s19.41,8.69,3.78,24.28C678.63,185.28,686.6,172.29,674.85,161Z"/><path class="cls-1" d="M791,526.57l.3.68Z"/><path class="cls-1" d="M791.33,527.25c.09.21.2.44.31.71Z"/><path class="cls-1" d="M791.76,528.23c.13.28.26.59.41.94Z"/><path class="cls-1" d="M792.17,529.17c.26.57.55,1.23.88,2Z"/><path class="cls-1" d="M793.05,531.16c.27.6.56,1.27.88,2Z"/><path class="cls-1" d="M795,535.67l-1.1-2.5c.25.55.5,1.13.78,1.76Z"/><path class="cls-5" d="M926,548.68l.11.25s26.5-35.39-24.66-19.6a19.91,19.91,0,0,0-9.4-21.69l-221-127.58a19.93,19.93,0,0,0-21.48,1.06c-2-10.34-11.76-54.42-28.63-17.12,0,0-19.22,1.56-11.71,20.83.07.2.15.4.23.6l0-.11S583.05,420.6,633.92,405a19.93,19.93,0,0,0,8.19,25.32l221,127.58a19.93,19.93,0,0,0,23.34-2.57c2.73,13.11,12.32,50,28.19,14.94,0,0,19.22-1.55,11.72-20.83C926.24,549.17,926.14,548.92,926,548.68ZM609.66,385.75c.06.13.13.3.21.49C609.79,386.07,609.72,385.91,609.66,385.75Zm1,2.33,1.58,3.59C611.83,390.71,611.31,389.52,610.68,388.08Zm1.76,4c.32.72.61,1.39.84,1.92C613.07,393.52,612.79,392.89,612.44,392.08Zm.86,2c.11.24.21.46.28.64Zm309,146.21c.09.21.2.44.31.71Zm1.72,3.91-.88-2-.41-.94c.13.28.26.59.41.94.26.57.55,1.23.88,2,.27.6.56,1.27.88,2,.25.55.5,1.13.78,1.76l.32.74-1.1-2.5Z"/><rect class="cls-2" x="647.38" y="445.26" width="250.17" height="32.85" rx="14.63" transform="translate(334.33 -324.38) rotate(30)"/><path class="cls-3" d="M634.85,373s19.41,8.69,3.78,24.28C638.63,397.28,646.6,384.29,634.85,373Z"/><path class="cls-6" d="M900,739.68l.11.25s26.5-35.39-24.66-19.6a19.91,19.91,0,0,0-9.4-21.69l-221-127.58a19.93,19.93,0,0,0-21.48,1.06c-2-10.34-11.76-54.42-28.63-17.12,0,0-19.22,1.56-11.71,20.83.07.2.15.4.23.6l0-.11S557.05,611.6,607.92,596a19.93,19.93,0,0,0,8.19,25.32l221,127.58a19.93,19.93,0,0,0,23.34-2.57c2.73,13.11,12.32,50,28.19,14.94,0,0,19.22-1.55,11.72-20.83C900.24,740.17,900.14,739.92,900,739.68ZM583.66,576.75c.06.13.13.3.21.49C583.79,577.07,583.72,576.91,583.66,576.75Zm1,2.33,1.58,3.59C585.83,581.71,585.31,580.52,584.68,579.08Zm1.76,4c.32.72.61,1.39.84,1.92C587.07,584.52,586.79,583.89,586.44,583.08Zm.86,2c.11.24.21.46.28.64Zm309,146.21c.09.21.2.44.31.71Zm1.72,3.91-.88-2-.41-.94c.13.28.26.59.41.94.26.57.55,1.23.88,2,.27.6.56,1.27.88,2,.25.55.5,1.13.78,1.76l.32.74-1.1-2.5Z"/><rect class="cls-2" x="621.38" y="636.26" width="250.17" height="32.85" rx="14.63" transform="translate(426.35 -285.79) rotate(30)"/><path class="cls-3" d="M608.85,564s19.41,8.69,3.78,24.28C612.63,588.28,620.6,575.29,608.85,564Z"/><path class="cls-7" d="M399,569.68l.11.25s26.5-35.39-24.66-19.6a19.91,19.91,0,0,0-9.4-21.69l-221-127.58a19.93,19.93,0,0,0-21.48,1.06c-2-10.34-11.76-54.42-28.63-17.12,0,0-19.22,1.56-11.71,20.83.07.2.15.4.23.6l0-.11S56.05,441.6,106.92,426a19.93,19.93,0,0,0,8.19,25.32l221,127.58a19.93,19.93,0,0,0,23.34-2.57c2.73,13.11,12.32,50,28.19,14.94,0,0,19.22-1.55,11.72-20.83C399.24,570.17,399.14,569.92,399,569.68ZM82.66,406.75l.21.49C82.79,407.07,82.72,406.91,82.66,406.75Zm1,2.33,1.58,3.59C84.83,411.71,84.31,410.52,83.68,409.08Zm1.76,4c.32.72.61,1.39.84,1.92Zm.86,2c.11.24.21.46.28.64Zm309,146.21c.09.21.2.44.31.71Zm1.72,3.91-.88-2-.41-.94c.13.28.26.59.41.94.26.57.55,1.23.88,2,.27.6.56,1.27.88,2,.25.55.5,1.13.78,1.76l.32.74-1.1-2.5Z"/><rect class="cls-2" x="120.38" y="466.26" width="250.17" height="32.85" rx="14.63" transform="translate(274.23 -58.06) rotate(30)"/><path class="cls-3" d="M107.85,394s19.41,8.69,3.78,24.28C111.63,418.28,119.6,405.29,107.85,394Z"/><path class="cls-3" d="M87.85,647s19.41,8.69,3.78,24.28C91.63,671.28,99.6,658.29,87.85,647Z"/></svg>