<svg id="Layer_1" data-name="Layer 1" xmlns="http://www.w3.org/2000/svg" viewBox="0 0 1024 1024"><defs><style>.cls-1,.cls-3{fill:#fff;}.cls-1,.cls-2,.cls-3,.cls-4,.cls-5{stroke:#e6e7e8;stroke-miterlimit:10;}.cls-2{fill:#68c7bd;}.cls-2,.cls-4,.cls-5{opacity:0.9;}.cls-3{stroke-width:1.08px;opacity:0.2;}.cls-4{fill:#e261a4;}.cls-5{fill:#fde441;}</style></defs><rect class="cls-1" x="366.53" y="392" width="14.75" height="386" rx="7.37" transform="translate(-203.86 200) rotate(-23.74)"/><path class="cls-2" d="M355.53,294A101.51,101.51,0,0,1,312,411.86a175.68,175.68,0,0,0,6.45,21.22l-20.37,8.68s-4.53-11.86-9.47-19.4A101.5,101.5,0,1,1,355.53,294Z"/><ellipse class="cls-3" cx="280.13" cy="264.85" rx="19" ry="39.67" transform="translate(-62.71 441.14) rotate(-70.61)"/><rect class="cls-1" x="498.28" y="360.59" width="14.75" height="386" rx="7.37" transform="translate(142.76 -102.5) rotate(13.46)"/><path class="cls-4" d="M667,310.66a101.52,101.52,0,0,1-106,67.58,174.74,174.74,0,0,0-7.69,20.8l-21.48-5.41s3.56-12.18,4.19-21.17a101.49,101.49,0,1,1,131-61.8Z"/><ellipse class="cls-3" cx="624.52" cy="241.89" rx="19" ry="39.67" transform="translate(-30 383.82) rotate(-33.41)"/><rect class="cls-1" x="604.42" y="433.82" width="14.75" height="386" rx="7.37" transform="translate(724.87 -241.75) rotate(51.72)"/><path class="cls-5" d="M888.9,536a101.5,101.5,0,0,1-125.06-12.56A177.71,177.71,0,0,0,744.92,535l-13.51-17.54s10.34-7.36,16.4-14A101.5,101.5,0,1,1,888.9,536Z"/><ellipse class="cls-3" cx="898.15" cy="455.68" rx="39.67" ry="19" transform="translate(368.12 1312.06) rotate(-85.15)"/></svg>