<svg id="Layer_1" data-name="Layer 1" xmlns="http://www.w3.org/2000/svg" viewBox="0 0 1024 1024"><defs><style>.cls-1{fill:#8062aa;}.cls-2{fill:#662d91;}.cls-3{opacity:0.5;}.cls-4{fill:#fff;}.cls-5{fill:#37b8ea;}.cls-6{fill:#a9d7e5;}.cls-7{fill:#e261a4;}.cls-8{fill:#dc9ac0;}.cls-9{fill:#fde441;}.cls-10{fill:#f4eabc;}.cls-11{fill:#68c7bd;}.cls-12{fill:#bde4e0;}</style></defs><ellipse class="cls-1" cx="237.78" cy="254.46" rx="65.45" ry="170.42" transform="translate(-33.05 473.42) rotate(-85.9)"/><ellipse class="cls-2" cx="241.39" cy="203.95" rx="77.94" ry="170.42" transform="matrix(0.07, -1, 1, 0.07, 20.69, 430.13)"/><ellipse class="cls-1" cx="240.05" cy="165.72" rx="65.45" ry="170.42" transform="translate(57.58 393.3) rotate(-85.9)"/><g class="cls-3"><path class="cls-4" d="M348.91,128.33A125.43,125.43,0,0,1,375.12,141a96.27,96.27,0,0,1,11.9,9,48,48,0,0,1,10,12.31,27.84,27.84,0,0,1,3,8.28,23,23,0,0,1-.3,9.47,24.77,24.77,0,0,1-3.91,8.44,32.58,32.58,0,0,1-2.76,3.45c-.47.56-1,1-1.49,1.52a20.86,20.86,0,0,1-1.54,1.45c-8.48,7.17-18,11.05-27.33,14.31l-3.55,1.14-3.55,1c-2.37.71-4.74,1.3-7.12,1.9-4.76,1.13-9.52,2.17-14.31,3L327,217.45l-7.18,1q-7.18,1-14.39,1.54c-2.4.2-4.8.42-7.2.57s-4.79.35-7.19.45c-4.81.15-9.6.39-14.41.44-9.6.07-19.2-.06-28.8-.8h0a.37.37,0,0,1,0-.74c9.5-.73,19-1.48,28.47-2.48s18.94-2,28.37-3.32,18.83-2.85,28.15-4.76a236.31,236.31,0,0,0,27.54-7.26,112.91,112.91,0,0,0,13.2-5.24,59.1,59.1,0,0,0,12-7.4c.48-.35.87-.78,1.31-1.17s.87-.77,1.26-1.2a25.75,25.75,0,0,0,2.24-2.67,17.77,17.77,0,0,0,3.07-6.13,19,19,0,0,0-1.7-13.42,38.7,38.7,0,0,0-3.69-6,61.76,61.76,0,0,0-4.6-5.37,96.07,96.07,0,0,0-10.67-9.36A162.7,162.7,0,0,0,348.58,129a.37.37,0,0,1,.29-.68Z"/></g><ellipse class="cls-5" cx="686.59" cy="299.34" rx="65.45" ry="170.42" transform="translate(338.89 962.76) rotate(-85.9)"/><ellipse class="cls-6" cx="690.21" cy="248.83" rx="77.94" ry="170.42" transform="translate(392.63 919.47) rotate(-85.9)"/><ellipse class="cls-5" cx="688.87" cy="210.6" rx="65.45" ry="170.42" transform="translate(429.52 882.63) rotate(-85.9)"/><g class="cls-3"><path class="cls-4" d="M797.73,173.21a125.43,125.43,0,0,1,26.21,12.62,96.27,96.27,0,0,1,11.9,9,48,48,0,0,1,10,12.31,27.85,27.85,0,0,1,3,8.28,23.14,23.14,0,0,1-.3,9.47,24.7,24.7,0,0,1-3.92,8.44,32.64,32.64,0,0,1-2.75,3.46c-.48.55-1,1-1.49,1.52s-1,1-1.54,1.44c-8.48,7.18-18,11-27.34,14.31l-3.54,1.15-3.55,1c-2.37.71-4.74,1.3-7.12,1.9-4.77,1.13-9.53,2.17-14.31,3l-7.19,1.16-7.18,1q-7.17,1-14.38,1.54c-2.4.21-4.8.42-7.2.57s-4.79.36-7.2.45c-4.8.16-9.6.39-14.4.44-9.61.07-19.2-.06-28.8-.79h-.05a.37.37,0,0,1-.35-.4.38.38,0,0,1,.35-.34c9.5-.73,19-1.48,28.47-2.48s18.94-2,28.37-3.32,18.83-2.84,28.15-4.76A234.34,234.34,0,0,0,809.09,247a112.07,112.07,0,0,0,13.19-5.24,58.9,58.9,0,0,0,12-7.4c.47-.35.87-.78,1.31-1.16s.87-.78,1.26-1.21a26.94,26.94,0,0,0,2.24-2.66,17.91,17.91,0,0,0,3.07-6.14,19,19,0,0,0-1.71-13.42,39.12,39.12,0,0,0-3.68-6,61.87,61.87,0,0,0-4.61-5.37,96.88,96.88,0,0,0-10.66-9.36,162.33,162.33,0,0,0-24.09-15.17.39.39,0,0,1-.16-.51.38.38,0,0,1,.45-.18Z"/></g><ellipse class="cls-7" cx="237.78" cy="548.06" rx="65.45" ry="170.42" transform="translate(-325.9 746.02) rotate(-85.9)"/><ellipse class="cls-8" cx="241.39" cy="497.55" rx="77.94" ry="170.42" transform="translate(-272.15 702.72) rotate(-85.9)"/><ellipse class="cls-7" cx="240.05" cy="459.32" rx="65.45" ry="170.42" transform="translate(-235.27 665.89) rotate(-85.9)"/><g class="cls-3"><path class="cls-4" d="M348.91,421.93a125.43,125.43,0,0,1,26.21,12.62,96.27,96.27,0,0,1,11.9,9,48,48,0,0,1,10,12.31,27.84,27.84,0,0,1,3,8.28,23,23,0,0,1-.3,9.47,24.68,24.68,0,0,1-3.91,8.44,32.71,32.71,0,0,1-2.76,3.46c-.47.55-1,1-1.49,1.51a20.86,20.86,0,0,1-1.54,1.45c-8.48,7.18-18,11.05-27.33,14.31l-3.55,1.14-3.55,1c-2.37.71-4.74,1.3-7.12,1.9-4.76,1.13-9.52,2.17-14.31,3L327,511.05l-7.18,1q-7.18,1-14.39,1.54c-2.4.2-4.8.42-7.2.57s-4.79.36-7.19.45c-4.81.16-9.6.39-14.41.44-9.6.07-19.2-.06-28.8-.79h0a.36.36,0,0,1-.34-.4.37.37,0,0,1,.34-.34c9.5-.73,19-1.48,28.47-2.48s18.94-2,28.37-3.32,18.83-2.84,28.15-4.76a234.34,234.34,0,0,0,27.54-7.26,112.91,112.91,0,0,0,13.2-5.24,59.1,59.1,0,0,0,12-7.4c.48-.35.87-.78,1.31-1.17s.87-.77,1.26-1.2a25.64,25.64,0,0,0,2.24-2.66,17.91,17.91,0,0,0,3.07-6.14,19,19,0,0,0-1.7-13.42,38.7,38.7,0,0,0-3.69-6,61.76,61.76,0,0,0-4.6-5.37,96.07,96.07,0,0,0-10.67-9.36,162.7,162.7,0,0,0-24.09-15.18.37.37,0,0,1-.16-.5.38.38,0,0,1,.45-.18Z"/></g><ellipse class="cls-9" cx="724" cy="598.56" rx="65.45" ry="170.42" transform="translate(75.17 1277.87) rotate(-85.9)"/><ellipse class="cls-10" cx="727.61" cy="548.04" rx="77.94" ry="170.42" transform="translate(128.91 1234.57) rotate(-85.9)"/><ellipse class="cls-9" cx="726.27" cy="509.81" rx="65.45" ry="170.42" transform="translate(165.8 1197.74) rotate(-85.9)"/><g class="cls-3"><path class="cls-4" d="M835.13,472.42A125.43,125.43,0,0,1,861.34,485a97.27,97.27,0,0,1,11.9,9,48.42,48.42,0,0,1,10,12.31,28.12,28.12,0,0,1,3,8.28,23,23,0,0,1-.3,9.47,24.52,24.52,0,0,1-3.92,8.44,32.64,32.64,0,0,1-2.75,3.46c-.47.55-1,1-1.49,1.52s-1,1-1.54,1.44c-8.48,7.18-18,11-27.34,14.31l-3.54,1.15-3.55,1c-2.37.71-4.74,1.3-7.12,1.91-4.77,1.12-9.52,2.16-14.31,3l-7.18,1.16-7.19,1q-7.17,1-14.38,1.54c-2.4.21-4.8.42-7.2.58s-4.79.35-7.2.44c-4.8.16-9.6.39-14.4.44-9.6.07-19.2-.06-28.8-.79h0a.37.37,0,0,1-.35-.4A.38.38,0,0,1,734,564c9.5-.73,19-1.48,28.47-2.48s18.94-2,28.37-3.32,18.83-2.84,28.15-4.76a234.34,234.34,0,0,0,27.54-7.26,112.91,112.91,0,0,0,13.2-5.24,59.1,59.1,0,0,0,12-7.4c.47-.35.87-.78,1.31-1.16s.87-.78,1.26-1.21a25.64,25.64,0,0,0,2.24-2.66,17.91,17.91,0,0,0,3.07-6.14A19,19,0,0,0,877.84,509a39.12,39.12,0,0,0-3.68-6,65.15,65.15,0,0,0-4.6-5.37,97,97,0,0,0-10.67-9.36A162.33,162.33,0,0,0,834.8,473.1a.39.39,0,0,1-.16-.51.38.38,0,0,1,.45-.18Z"/></g><ellipse class="cls-11" cx="273.31" cy="828.57" rx="65.45" ry="170.42" transform="translate(-572.7 1041.9) rotate(-85.9)"/><ellipse class="cls-12" cx="276.92" cy="778.06" rx="77.94" ry="170.42" transform="translate(-518.96 998.6) rotate(-85.9)"/><ellipse class="cls-11" cx="275.58" cy="739.83" rx="65.45" ry="170.42" transform="translate(-482.07 961.77) rotate(-85.9)"/><g class="cls-3"><path class="cls-4" d="M384.44,702.44a125.19,125.19,0,0,1,26.21,12.62,95.62,95.62,0,0,1,11.91,9,48.22,48.22,0,0,1,10,12.31,27.84,27.84,0,0,1,3,8.28,22.8,22.8,0,0,1-.3,9.47,24.68,24.68,0,0,1-3.91,8.44,34,34,0,0,1-2.75,3.46c-.48.55-1,1-1.5,1.52s-1,1-1.53,1.44c-8.49,7.18-18,11-27.34,14.31l-3.55,1.15-3.55,1c-2.36.71-4.74,1.3-7.12,1.9-4.76,1.13-9.52,2.17-14.31,3l-7.18,1.16-7.18,1q-7.19,1-14.39,1.54c-2.4.21-4.79.42-7.19.57s-4.8.36-7.2.45c-4.81.16-9.6.39-14.4.44-9.61.07-19.21-.06-28.81-.79h-.05a.37.37,0,0,1,0-.74c9.5-.73,19-1.48,28.47-2.48s18.95-2,28.37-3.32,18.83-2.84,28.15-4.76a235,235,0,0,0,27.55-7.26A112.76,112.76,0,0,0,409,771a58.83,58.83,0,0,0,12-7.4c.48-.35.87-.78,1.31-1.16s.87-.78,1.26-1.21a24.45,24.45,0,0,0,2.24-2.66,17.91,17.91,0,0,0,3.07-6.14,19.06,19.06,0,0,0-1.7-13.42,39.18,39.18,0,0,0-3.69-6,61.76,61.76,0,0,0-4.6-5.37,96.07,96.07,0,0,0-10.67-9.36,162.24,162.24,0,0,0-24.08-15.17.38.38,0,0,1,.29-.69Z"/></g></svg>