<svg id="Layer_1" data-name="Layer 1" xmlns="http://www.w3.org/2000/svg" viewBox="0 0 1024 1024"><defs><style>.cls-1{fill:#fde441;}.cls-2{fill:#68c7bd;}.cls-3{fill:#fff;stroke-linecap:round;stroke-linejoin:round;stroke-width:2.37px;}.cls-3,.cls-4{stroke:#fff;opacity:0.5;}.cls-4{fill:none;stroke-miterlimit:10;stroke-width:1.99px;}</style></defs><path class="cls-1" d="M535,588.62a4.71,4.71,0,0,1-.12.54h-.17l-.56-.5.85,0c8.5-35.25-14.36-74.9-55-92.27-32.44-13.86-67.29-9.7-90,8-4.77-23-21.61-87.8-49.46-26.23,0,0-33.72,2.73-20.54,36.55.1.29.22.59.33.88v0s-47.16,63,45.24,33.75c-2.65,32.58,19.6,66.78,56.58,82.58,25.88,11.05,53.29,10.66,74.85,1l.54-.23v.83c-.3,83.29,44.71,25.29,44.71,25.29h0l.9.09c36.11,3.74,29.81-29.49,29.81-29.49C624.45,586.52,558.83,587.17,535,588.62ZM327.08,531.18a8.27,8.27,0,0,1,.35.81Z"/><path class="cls-2" d="M392.42,588.57l.37.86A7.68,7.68,0,0,1,392.42,588.57Z"/><path class="cls-2" d="M394.21,592.65,397,599C396.22,597.27,395.31,595.18,394.21,592.65Z"/><path class="cls-2" d="M397.29,599.67c.57,1.27,1.07,2.44,1.48,3.37Z"/><path class="cls-2" d="M398.8,603.11c.2.42.37.81.49,1.12C399.15,603.92,399,603.55,398.8,603.11Z"/><path class="cls-3" d="M362.84,480.45s34.07,15.25,6.63,42.6C369.47,523.05,383.46,500.26,362.84,480.45Z"/><path class="cls-2" d="M497.44,632.68v.83l-.54-.6Z"/><path class="cls-4" d="M408.09,616.1s40,26.71,84.34,12.07"/></svg>