<svg id="Layer_1" data-name="Layer 1" xmlns="http://www.w3.org/2000/svg" viewBox="0 0 1024 1024"><defs><style>.cls-1{fill:#37b8ea;}.cls-2{fill:#68c7bd;}.cls-3,.cls-6{fill:#fff;stroke-linecap:round;stroke-linejoin:round;}.cls-3,.cls-4,.cls-6{stroke:#fff;opacity:0.5;}.cls-3{stroke-width:2.37px;}.cls-4{fill:none;stroke-miterlimit:10;stroke-width:1.99px;}.cls-5{fill:#e261a4;}.cls-6{stroke-width:0.9px;}.cls-7{fill:#fde441;}.cls-8{fill:#8062aa;}</style></defs><path class="cls-1" d="M452.33,540.94c0,.18-.07.37-.12.54H452l-.56-.5.86,0c8.49-35.25-14.37-74.9-55-92.27-32.44-13.86-67.28-9.7-90,8-4.78-23-21.62-87.79-49.46-26.22,0,0-33.72,2.73-20.55,36.54.1.3.22.6.34.89,0,0,0,0,0,0s-47.16,63,45.25,33.75c-2.65,32.58,19.6,66.78,56.58,82.58,25.87,11,53.28,10.66,74.85,1l.54-.24c0,.28,0,.56,0,.84-.29,83.29,44.71,25.29,44.71,25.29h0l.91.09c36.1,3.74,29.81-29.49,29.81-29.49C541.83,538.84,476.21,539.49,452.33,540.94ZM244.46,483.5c.14.29.26.57.35.8C244.7,484.07,244.59,483.8,244.46,483.5Z"/><path class="cls-2" d="M309.79,540.89c.11.22.23.52.37.86C310,541.45,309.9,541.17,309.79,540.89Z"/><path class="cls-2" d="M311.58,545l2.77,6.3C313.6,549.59,312.69,547.5,311.58,545Z"/><path class="cls-2" d="M314.67,552c.56,1.27,1.07,2.44,1.47,3.37C315.77,554.52,315.28,553.41,314.67,552Z"/><path class="cls-2" d="M316.18,555.43c.19.42.37.81.49,1.12C316.53,556.24,316.37,555.87,316.18,555.43Z"/><path class="cls-3" d="M280.21,432.77s34.07,15.25,6.64,42.6C286.85,475.37,300.84,452.58,280.21,432.77Z"/><path class="cls-2" d="M414.82,585c0,.28,0,.56,0,.84l-.53-.6Z"/><path class="cls-4" d="M323.48,569.09s40,26.7,84.34,12.07"/><path class="cls-5" d="M816.88,367.28a3.49,3.49,0,0,1-.12.54h-.17l-.56-.5.85-.05c8.5-35.25-14.36-74.9-55-92.27-32.44-13.86-67.29-9.7-90,8-4.77-23-21.61-87.79-49.46-26.22,0,0-33.72,2.73-20.54,36.54.1.3.22.6.33.89,0,0,0,0,0,0S555,357.21,647.4,328c-2.65,32.58,19.6,66.78,56.58,82.58,25.88,11.05,53.29,10.66,74.86,1l.53-.24v.84c-.3,83.29,44.71,25.29,44.71,25.29h0l.91.09c36.1,3.74,29.8-29.49,29.8-29.49C906.38,365.17,840.76,365.82,816.88,367.28ZM609,309.83a8.27,8.27,0,0,1,.35.81Z"/><path class="cls-2" d="M674.35,367.22l.37.86A8,8,0,0,1,674.35,367.22Z"/><path class="cls-2" d="M676.14,371.31l2.77,6.3C678.15,375.93,677.24,373.84,676.14,371.31Z"/><path class="cls-2" d="M679.22,378.33c.57,1.26,1.08,2.44,1.48,3.37Z"/><path class="cls-3" d="M644.77,259.11s34.07,15.25,6.64,42.6C651.41,301.71,665.4,278.92,644.77,259.11Z"/><path class="cls-6" d="M638.66,211.58s12.88,5.76,2.51,16.09C641.17,227.67,646.46,219.06,638.66,211.58Z"/><path class="cls-2" d="M779.37,411.33v.84l-.53-.6Z"/><path class="cls-4" d="M690,396.09s40,26.7,84.34,12.07"/><path class="cls-7" d="M805,653.62a4.71,4.71,0,0,1-.12.54h-.17l-.56-.5.85,0c8.5-35.25-14.36-74.9-55-92.27-32.44-13.86-67.29-9.7-90,8-4.77-23-21.61-87.8-49.46-26.23,0,0-33.72,2.73-20.54,36.55.1.29.22.59.33.88v0s-47.16,63,45.24,33.75c-2.65,32.58,19.6,66.78,56.58,82.58,25.88,11.05,53.29,10.66,74.85,1l.54-.23v.83c-.3,83.29,44.71,25.29,44.71,25.29h0l.9.09c36.11,3.74,29.81-29.49,29.81-29.49C894.45,651.52,828.83,652.17,805,653.62ZM597.08,596.18a8.27,8.27,0,0,1,.35.81Z"/><path class="cls-2" d="M662.42,653.57l.37.86A7.68,7.68,0,0,1,662.42,653.57Z"/><path class="cls-2" d="M664.21,657.65,667,664C666.22,662.27,665.31,660.18,664.21,657.65Z"/><path class="cls-2" d="M667.29,664.67c.57,1.27,1.07,2.44,1.48,3.37Z"/><path class="cls-2" d="M668.8,668.11c.2.42.37.81.49,1.12C669.15,668.92,669,668.55,668.8,668.11Z"/><path class="cls-3" d="M632.84,545.45s34.07,15.25,6.63,42.6C639.47,588.05,653.46,565.26,632.84,545.45Z"/><path class="cls-2" d="M767.44,697.68v.83l-.54-.6Z"/><path class="cls-4" d="M678.09,681.1s40,26.71,84.34,12.07"/><path class="cls-8" d="M626.65,904.17a4.71,4.71,0,0,1-.12.54h-.17l-.56-.5.85-.05c8.5-35.25-14.36-74.9-55-92.27-32.44-13.86-67.29-9.7-90,8-4.77-23-21.61-87.79-49.46-26.22,0,0-33.72,2.73-20.54,36.54.1.3.22.6.33.89v0s-47.16,63,45.24,33.75c-2.65,32.58,19.6,66.78,56.58,82.58,25.88,11,53.29,10.66,74.85,1l.54-.23c0,.27,0,.55,0,.83-.29,83.29,44.72,25.29,44.72,25.29h0l.9.09c36.11,3.74,29.81-29.49,29.81-29.49C716.15,902.07,650.53,902.72,626.65,904.17ZM418.78,846.73a8.19,8.19,0,0,1,.35.8Z"/><path class="cls-2" d="M484.12,904.12c.1.22.22.52.36.86C484.34,904.68,484.22,904.4,484.12,904.12Z"/><path class="cls-2" d="M485.91,908.2c.85,1.95,1.86,4.23,2.77,6.3C487.92,912.82,487,910.73,485.91,908.2Z"/><path class="cls-2" d="M489,915.22l1.48,3.37Z"/><path class="cls-2" d="M490.5,918.66c.19.42.37.81.49,1.12Z"/><path class="cls-3" d="M454.54,796s34.06,15.25,6.63,42.6C461.17,838.6,475.16,815.81,454.54,796Z"/><path class="cls-2" d="M589.14,948.23c0,.27,0,.55,0,.83l-.53-.6Z"/><path class="cls-4" d="M499.79,931.65s40,26.71,84.34,12.07"/><path class="cls-2" d="M444.37,201.57a3.25,3.25,0,0,1-.12.54l-.17,0c-.18-.18-.37-.34-.56-.51l.85-.05c8.5-35.24-14.36-74.89-55-92.27-32.44-13.86-67.29-9.7-90,8-4.77-23-21.61-87.8-49.46-26.23,0,0-33.72,2.74-20.54,36.55.1.29.22.59.33.88,0,0,0,0,0,0s-47.16,63,45.24,33.75c-2.65,32.58,19.6,66.78,56.58,82.58,25.88,11.05,53.29,10.66,74.86,1l.53-.24v.83c-.3,83.29,44.71,25.29,44.71,25.29h0l.91.09c36.1,3.74,29.8-29.48,29.8-29.48C533.87,199.47,468.25,200.12,444.37,201.57ZM236.5,144.13a8.27,8.27,0,0,1,.35.81C236.75,144.7,236.64,144.43,236.5,144.13Z"/><path class="cls-2" d="M301.84,201.52c.1.23.23.52.37.86C302.07,202.08,301.94,201.8,301.84,201.52Z"/><path class="cls-2" d="M303.63,205.61c.86,1.94,1.86,4.22,2.77,6.29C305.65,210.22,304.73,208.13,303.63,205.61Z"/><path class="cls-2" d="M306.72,212.62c.56,1.27,1.07,2.44,1.47,3.37C307.82,215.15,307.33,214,306.72,212.62Z"/><path class="cls-2" d="M308.22,216.06c.2.42.37.81.5,1.13C308.58,216.87,308.42,216.5,308.22,216.06Z"/><path class="cls-3" d="M272.26,93.4s34.07,15.25,6.64,42.6C278.9,136,292.89,113.22,272.26,93.4Z"/><path class="cls-2" d="M406.86,245.63v.83l-.53-.59Z"/><path class="cls-4" d="M318.17,229.05s40,26.71,84.35,12.07"/></svg>