<svg id="Layer_1" data-name="Layer 1" xmlns="http://www.w3.org/2000/svg" viewBox="0 0 1024 1024"><defs><style>.cls-1{fill:#8062aa;}.cls-2{fill:#662d91;}.cls-3{opacity:0.5;}.cls-4{fill:#fff;}</style></defs><ellipse class="cls-1" cx="509.78" cy="600.46" rx="65.45" ry="170.42" transform="translate(-125.62 1065.97) rotate(-85.9)"/><ellipse class="cls-2" cx="513.39" cy="549.95" rx="77.94" ry="170.42" transform="translate(-71.88 1022.67) rotate(-85.9)"/><ellipse class="cls-1" cx="512.05" cy="511.72" rx="65.45" ry="170.42" transform="translate(-34.99 985.84) rotate(-85.9)"/><g class="cls-3"><path class="cls-4" d="M620.91,474.33c17.15,6.06,38.78,17.49,48.08,33.95,6.65,11.7,2.92,24.16-7,32.61-22.82,19.28-69.81,24.52-99,26.14a366.44,366.44,0,0,1-43.21-.36.37.37,0,0,1-.39-.4.36.36,0,0,1,.34-.34c36.42-3.08,109.58-8.28,137.71-30.46,19.12-15.58,1.72-34.38-12.78-45.29A162.7,162.7,0,0,0,620.58,475a.38.38,0,0,1-.16-.5.38.38,0,0,1,.49-.17Z"/></g></svg>