<svg id="Layer_1" data-name="Layer 1" xmlns="http://www.w3.org/2000/svg" viewBox="0 0 1024 1024"><defs><style>.cls-1{fill:#37b8ea;}.cls-2{fill:#a9d7e5;}.cls-3{opacity:0.5;}.cls-4{fill:#fff;}</style></defs><ellipse class="cls-1" cx="511.59" cy="592.34" rx="65.45" ry="170.42" transform="matrix(0.07, -1, 1, 0.07, -115.84, 1060.24)"/><ellipse class="cls-2" cx="515.21" cy="541.83" rx="77.94" ry="170.42" transform="translate(-62.1 1016.95) rotate(-85.9)"/><ellipse class="cls-1" cx="513.87" cy="503.6" rx="65.45" ry="170.42" transform="translate(-25.21 980.12) rotate(-85.9)"/><g class="cls-3"><path class="cls-4" d="M622.73,466.21c17.15,6.07,38.78,17.49,48.07,34,6.66,11.7,2.93,24.16-7,32.61-22.82,19.28-69.81,24.52-99,26.14a368.43,368.43,0,0,1-43.2-.35.39.39,0,0,1-.4-.41.38.38,0,0,1,.35-.34c36.42-3.08,109.58-8.28,137.71-30.46,19.12-15.58,1.72-34.38-12.78-45.29a162.33,162.33,0,0,0-24.09-15.17.38.38,0,0,1,.33-.68Z"/></g></svg>