<svg id="Layer_1" data-name="Layer 1" xmlns="http://www.w3.org/2000/svg" viewBox="0 0 1024 1024"><defs><style>.cls-1{fill:#68c7bd;}.cls-2{fill:#fff;stroke-linecap:round;stroke-linejoin:round;stroke-width:2.37px;}.cls-2,.cls-3{stroke:#fff;opacity:0.5;}.cls-3{fill:none;stroke-miterlimit:10;stroke-width:1.99px;}</style></defs><path class="cls-1" d="M552.37,554.57a3.25,3.25,0,0,1-.12.54l-.17,0c-.18-.18-.37-.34-.56-.51l.85,0c8.5-35.24-14.36-74.89-55-92.27-32.44-13.86-67.29-9.7-90,8-4.77-23-21.61-87.8-49.46-26.23,0,0-33.72,2.74-20.54,36.55.1.29.22.59.33.88,0,0,0,0,0,0s-47.16,63,45.24,33.75c-2.65,32.58,19.6,66.78,56.58,82.58,25.88,11,53.29,10.66,74.86,1l.53-.24v.83c-.3,83.29,44.71,25.29,44.71,25.29h0l.91.09c36.1,3.74,29.8-29.48,29.8-29.48C641.87,552.47,576.25,553.12,552.37,554.57ZM344.5,497.13a8.27,8.27,0,0,1,.35.81C344.75,497.7,344.64,497.43,344.5,497.13Z"/><path class="cls-1" d="M409.84,554.52c.1.23.23.52.37.86C410.07,555.08,409.94,554.8,409.84,554.52Z"/><path class="cls-1" d="M411.63,558.61c.86,1.94,1.86,4.22,2.77,6.29C413.65,563.22,412.73,561.13,411.63,558.61Z"/><path class="cls-1" d="M414.72,565.62c.56,1.27,1.07,2.44,1.47,3.37C415.82,568.15,415.33,567,414.72,565.62Z"/><path class="cls-1" d="M416.22,569.06c.2.42.37.81.5,1.13C416.58,569.87,416.42,569.5,416.22,569.06Z"/><path class="cls-2" d="M380.26,446.4s34.07,15.25,6.64,42.6C386.9,489,400.89,466.22,380.26,446.4Z"/><path class="cls-1" d="M514.86,598.63v.83l-.53-.59Z"/><path class="cls-3" d="M426.17,582.05s40,26.71,84.35,12.07"/></svg>