<svg id="Layer_1" data-name="Layer 1" xmlns="http://www.w3.org/2000/svg" viewBox="0 0 1024 1024"><defs><style>.cls-1{fill:#68c7bd;}.cls-1,.cls-2,.cls-3,.cls-4,.cls-5{stroke:#e6e7e8;stroke-miterlimit:10;stroke-width:1.08px;}.cls-2{fill:#e261a4;}.cls-3{fill:#fde441;}.cls-4{fill:#37b8ea;}.cls-5{fill:#8062aa;}</style></defs><rect class="cls-1" x="533.5" y="455.5" width="149" height="32" rx="12"/><rect class="cls-1" x="219.5" y="623.5" width="149" height="32" rx="12" transform="translate(-400.86 527.38) rotate(-56.14)"/><rect class="cls-1" x="654.5" y="828.5" width="149" height="32" rx="12" transform="translate(810.67 -268.13) rotate(45)"/><rect class="cls-1" x="163.5" y="182.5" width="149" height="32" rx="12" transform="translate(-71.91 197.81) rotate(-39.7)"/><rect class="cls-2" x="163.5" y="906.5" width="149" height="32" rx="12" transform="translate(-697.22 740.8) rotate(-64.54)"/><rect class="cls-2" x="682.5" y="638.5" width="149" height="32" rx="12" transform="translate(1201.83 -241.91) rotate(75.55)"/><rect class="cls-2" x="336.5" y="390.5" width="149" height="32" rx="12" transform="translate(-148.19 259.96) rotate(-30)"/><rect class="cls-2" x="580.5" y="166.5" width="149" height="32" rx="12" transform="matrix(0.87, 0.5, -0.5, 0.87, 179, -303.05)"/><rect class="cls-3" x="758.5" y="977.5" width="149" height="32" rx="12" transform="translate(556.26 -273.13) rotate(27.65)"/><rect class="cls-3" x="729.5" y="318.5" width="149" height="32" rx="12"/><rect class="cls-3" x="48.5" y="445.5" width="149" height="32" rx="12" transform="translate(-266.44 185) rotate(-39.7)"/><rect class="cls-3" x="446.5" y="713.5" width="149" height="32" rx="12" transform="translate(-375.06 755.75) rotate(-56.14)"/><rect class="cls-4" x="751.5" y="82.5" width="149" height="32" rx="12" transform="translate(464.67 -650.78) rotate(57.45)"/><rect class="cls-4" x="447.5" y="935.5" width="149" height="32" rx="12" transform="translate(1273.92 168.91) rotate(72.6)"/><rect class="cls-4" x="16.5" y="121.5" width="149" height="32" rx="12" transform="translate(-56.85 210.49) rotate(-82.78)"/><rect class="cls-5" x="16.5" y="655.5" width="149" height="32" rx="12" transform="translate(704.58 383.91) rotate(72.6)"/><rect class="cls-5" x="418.5" y="121.5" width="149" height="32" rx="12" transform="translate(476.82 -374.06) rotate(72.6)"/><rect class="cls-5" x="830.5" y="516.5" width="149" height="32" rx="12" transform="translate(1014.34 -511.83) rotate(65.5)"/></svg>