<svg id="Layer_1" data-name="Layer 1" xmlns="http://www.w3.org/2000/svg" viewBox="0 0 1024 1024"><defs><style>.cls-1{fill:#37b8ea;}.cls-2{fill:#68c7bd;}.cls-3{fill:#fff;stroke-linecap:round;stroke-linejoin:round;stroke-width:2.37px;}.cls-3,.cls-4{stroke:#fff;opacity:0.5;}.cls-4{fill:none;stroke-miterlimit:10;stroke-width:1.99px;}</style></defs><path class="cls-1" d="M527.33,589.94c0,.18-.07.37-.12.54H527l-.56-.5.86,0c8.49-35.25-14.37-74.9-55-92.27-32.44-13.86-67.28-9.7-90,8-4.78-23-21.62-87.79-49.46-26.22,0,0-33.72,2.73-20.55,36.54.1.3.22.6.34.89l0,0s-47.16,63,45.25,33.75c-2.65,32.58,19.6,66.78,56.58,82.58,25.87,11,53.28,10.66,74.85,1l.54-.24c0,.28,0,.56,0,.84-.29,83.29,44.71,25.29,44.71,25.29h0l.91.09c36.1,3.74,29.81-29.49,29.81-29.49C616.83,587.84,551.21,588.49,527.33,589.94ZM319.46,532.5c.14.29.26.57.35.8C319.7,533.07,319.59,532.8,319.46,532.5Z"/><path class="cls-2" d="M384.79,589.89c.11.22.23.52.37.86C385,590.45,384.9,590.17,384.79,589.89Z"/><path class="cls-2" d="M386.58,594l2.77,6.3C388.6,598.59,387.69,596.5,386.58,594Z"/><path class="cls-2" d="M389.67,601c.56,1.27,1.07,2.44,1.47,3.37C390.77,603.52,390.28,602.41,389.67,601Z"/><path class="cls-2" d="M391.18,604.43c.19.42.37.81.49,1.12C391.53,605.24,391.37,604.87,391.18,604.43Z"/><path class="cls-3" d="M355.21,481.77s34.07,15.25,6.64,42.6C361.85,524.37,375.84,501.58,355.21,481.77Z"/><path class="cls-2" d="M489.82,634c0,.28,0,.56,0,.84l-.53-.6Z"/><path class="cls-4" d="M398.48,618.09s40,26.7,84.34,12.07"/></svg>