<svg id="Layer_1" data-name="Layer 1" xmlns="http://www.w3.org/2000/svg" viewBox="0 0 1024 1024"><defs><style>.cls-1{fill:#fde441;}.cls-2{fill:#f4eabc;}.cls-3{opacity:0.5;}.cls-4{fill:#fff;}</style></defs><ellipse class="cls-1" cx="514" cy="572.56" rx="65.45" ry="170.42" transform="translate(-93.87 1044.27) rotate(-85.9)"/><ellipse class="cls-2" cx="517.61" cy="522.04" rx="77.94" ry="170.42" transform="translate(-40.13 1000.97) rotate(-85.9)"/><ellipse class="cls-1" cx="516.27" cy="483.81" rx="65.45" ry="170.42" transform="translate(-3.24 964.14) rotate(-85.9)"/><g class="cls-3"><path class="cls-4" d="M625.13,446.42c17.15,6.07,38.78,17.49,48.08,33.95,6.65,11.7,2.92,24.16-7,32.61-22.82,19.28-69.81,24.52-99,26.14a368.58,368.58,0,0,1-43.21-.35.39.39,0,0,1-.4-.41A.38.38,0,0,1,524,538c36.42-3.08,109.58-8.28,137.71-30.46,19.12-15.58,1.72-34.38-12.78-45.29A161.82,161.82,0,0,0,624.8,447.1a.38.38,0,0,1,.33-.68Z"/></g></svg>