<svg id="Layer_1" data-name="Layer 1" xmlns="http://www.w3.org/2000/svg" viewBox="0 0 1024 1024"><defs><style>.cls-1{fill:#68c7bd;}.cls-2,.cls-3{fill:#fff;opacity:0.5;}.cls-3{stroke:#fff;stroke-linecap:round;stroke-linejoin:round;stroke-width:1.35px;}</style></defs><path class="cls-1" d="M610.61,604.05s10,61.19,29,19.19c0,0,19.22-1.55,11.72-20.83-.19-.48-.4-1-.62-1.48-9.1-20.69.43,1,.43,1s27.47-36.69-27.53-18.69Z"/><rect class="cls-1" x="344.67" y="492.96" width="294.85" height="58" rx="19.84" transform="translate(326.91 -176.12) rotate(30)"/><rect class="cls-2" x="367.38" y="497.26" width="250.17" height="32.85" rx="14.63" transform="matrix(0.87, 0.5, -0.5, 0.87, 322.82, -177.41)"/><path class="cls-1" d="M375,436.19S365,375,346,417c0,0-19.22,1.56-11.71,20.83.18.49.39,1,.61,1.49,9.1,20.68-.43-1-.43-1S307,475,362,457Z"/><path class="cls-3" d="M361.85,423s19.41,8.69,3.78,24.28C365.63,447.28,373.6,434.29,361.85,423Z"/></svg>