<svg id="Layer_1" data-name="Layer 1" xmlns="http://www.w3.org/2000/svg" viewBox="0 0 1024 1024"><defs><style>.cls-1{fill:#37b8ea;}.cls-2,.cls-3{fill:#fff;opacity:0.5;}.cls-3{stroke:#fff;stroke-linecap:round;stroke-linejoin:round;stroke-width:1.35px;}</style></defs><path class="cls-1" d="M705,593.68l.11.25s26.5-35.39-24.66-19.6a19.91,19.91,0,0,0-9.4-21.69l-221-127.58a19.93,19.93,0,0,0-21.48,1.06c-2-10.34-11.76-54.42-28.63-17.12,0,0-19.22,1.56-11.71,20.83.07.2.15.4.23.6l0-.11S362.05,465.6,412.92,450a19.93,19.93,0,0,0,8.19,25.32l221,127.58a19.93,19.93,0,0,0,23.34-2.57c2.73,13.11,12.32,50,28.19,14.94,0,0,19.22-1.55,11.72-20.83C705.24,594.17,705.14,593.92,705,593.68ZM388.66,430.75c.06.13.13.3.21.49C388.79,431.07,388.72,430.91,388.66,430.75Zm1,2.33,1.58,3.59C390.83,435.71,390.31,434.52,389.68,433.08Zm1.76,4c.32.72.61,1.39.84,1.92Zm.86,2c.11.24.21.46.28.64Zm309,146.21c.09.21.2.44.31.71Zm1.72,3.91-.88-2-.41-.94c.13.28.26.59.41.94.26.57.55,1.23.88,2,.27.6.56,1.27.88,2,.25.55.5,1.13.78,1.76l.32.74-1.1-2.5Z"/><rect class="cls-2" x="426.38" y="490.26" width="250.17" height="32.85" rx="14.63" transform="matrix(0.87, 0.5, -0.5, 0.87, 327.22, -207.85)"/><path class="cls-3" d="M413.85,418s19.41,8.69,3.78,24.28C417.63,442.28,425.6,429.29,413.85,418Z"/></svg>