<svg id="Layer_1" data-name="Layer 1" xmlns="http://www.w3.org/2000/svg" viewBox="0 0 1024 1024"><defs><style>.cls-1{fill:#8062aa;}.cls-2{fill:#662d91;}.cls-3{opacity:0.5;}.cls-4{fill:#fff;}.cls-5{fill:#37b8ea;}.cls-6{fill:#a9d7e5;}.cls-7{fill:#e261a4;}.cls-8{fill:#dc9ac0;}.cls-9{fill:#fde441;}.cls-10{fill:#f4eabc;}.cls-11{fill:#68c7bd;}.cls-12{fill:#bde4e0;}</style></defs><ellipse class="cls-1" cx="280.78" cy="268.46" rx="65.45" ry="170.42" transform="translate(-7.09 529.31) rotate(-85.9)"/><ellipse class="cls-2" cx="284.39" cy="217.95" rx="77.94" ry="170.42" transform="translate(46.65 486.02) rotate(-85.9)"/><ellipse class="cls-1" cx="283.05" cy="179.72" rx="65.45" ry="170.42" transform="translate(83.54 449.18) rotate(-85.9)"/><g class="cls-3"><path class="cls-4" d="M391.91,142.33c17.15,6.06,38.78,17.49,48.08,33.95,6.65,11.7,2.92,24.16-7,32.61-22.82,19.28-69.81,24.52-99,26.14a366.44,366.44,0,0,1-43.21-.36.37.37,0,0,1-.39-.4.36.36,0,0,1,.34-.34c36.42-3.08,109.58-8.28,137.71-30.46,19.12-15.58,1.72-34.38-12.78-45.29A162.7,162.7,0,0,0,391.58,143a.38.38,0,0,1-.16-.5.38.38,0,0,1,.49-.17Z"/></g><ellipse class="cls-5" cx="729.59" cy="313.34" rx="65.45" ry="170.42" transform="matrix(0.07, -1, 1, 0.07, 364.85, 1018.65)"/><ellipse class="cls-6" cx="733.21" cy="262.83" rx="77.94" ry="170.42" transform="translate(418.59 975.35) rotate(-85.9)"/><ellipse class="cls-5" cx="731.87" cy="224.6" rx="65.45" ry="170.42" transform="translate(455.48 938.52) rotate(-85.9)"/><g class="cls-3"><path class="cls-4" d="M840.73,187.21c17.15,6.07,38.78,17.49,48.07,33.95,6.66,11.7,2.93,24.16-7,32.61-22.82,19.28-69.81,24.52-99,26.14a368.43,368.43,0,0,1-43.2-.35.39.39,0,0,1-.4-.41.38.38,0,0,1,.35-.34c36.42-3.08,109.58-8.28,137.71-30.46,19.12-15.58,1.72-34.38-12.78-45.29a162.33,162.33,0,0,0-24.09-15.17.38.38,0,0,1,.33-.68Z"/></g><ellipse class="cls-7" cx="280.78" cy="562.06" rx="65.45" ry="170.42" transform="translate(-299.94 801.9) rotate(-85.9)"/><ellipse class="cls-8" cx="284.39" cy="511.55" rx="77.94" ry="170.42" transform="translate(-246.19 758.61) rotate(-85.9)"/><ellipse class="cls-7" cx="283.05" cy="473.32" rx="65.45" ry="170.42" transform="translate(-209.31 721.78) rotate(-85.9)"/><g class="cls-3"><path class="cls-4" d="M391.91,435.93C409,442,430.72,453.44,440,469.88c6.65,11.7,2.92,24.16-7,32.61-22.82,19.28-69.81,24.52-99,26.14a368.6,368.6,0,0,1-43.21-.35.38.38,0,0,1-.39-.41.37.37,0,0,1,.34-.34c36.42-3.08,109.58-8.28,137.71-30.46,19.12-15.58,1.72-34.38-12.78-45.29a162.7,162.7,0,0,0-24.09-15.18.37.37,0,0,1-.16-.5.38.38,0,0,1,.49-.17Z"/></g><ellipse class="cls-9" cx="767" cy="612.56" rx="65.45" ry="170.42" transform="translate(101.13 1333.75) rotate(-85.9)"/><ellipse class="cls-10" cx="770.61" cy="562.04" rx="77.94" ry="170.42" transform="translate(154.87 1290.46) rotate(-85.9)"/><ellipse class="cls-9" cx="769.27" cy="523.81" rx="65.45" ry="170.42" transform="translate(191.76 1253.63) rotate(-85.9)"/><g class="cls-3"><path class="cls-4" d="M878.13,486.42c17.15,6.07,38.78,17.49,48.08,33.95,6.65,11.7,2.92,24.16-7,32.61-22.82,19.28-69.81,24.52-99,26.14a368.58,368.58,0,0,1-43.21-.35.39.39,0,0,1-.4-.41A.38.38,0,0,1,777,578c36.42-3.08,109.58-8.28,137.71-30.46,19.12-15.58,1.72-34.38-12.78-45.29A161.82,161.82,0,0,0,877.8,487.1a.38.38,0,0,1,.33-.68Z"/></g><ellipse class="cls-11" cx="316.31" cy="842.57" rx="65.45" ry="170.42" transform="translate(-546.74 1097.78) rotate(-85.9)"/><ellipse class="cls-12" cx="319.92" cy="792.06" rx="77.94" ry="170.42" transform="translate(-493 1054.49) rotate(-85.9)"/><ellipse class="cls-11" cx="318.58" cy="753.83" rx="65.45" ry="170.42" transform="translate(-456.11 1017.66) rotate(-85.9)"/><g class="cls-3"><path class="cls-4" d="M427.44,716.44c17.15,6.07,38.78,17.49,48.08,33.95,6.65,11.7,2.92,24.16-7,32.61-22.83,19.28-69.82,24.52-99,26.14a368.6,368.6,0,0,1-43.21-.35.38.38,0,0,1-.39-.41.37.37,0,0,1,.34-.34C362.69,805,435.85,799.76,464,777.58,483.1,762,465.7,743.2,451.2,732.29a162.24,162.24,0,0,0-24.08-15.17.37.37,0,0,1-.16-.51.38.38,0,0,1,.48-.17Z"/></g></svg>