<svg id="Layer_1" data-name="Layer 1" xmlns="http://www.w3.org/2000/svg" viewBox="0 0 1024 1024"><defs><style>.cls-1{fill:#e261a4;}.cls-2,.cls-4,.cls-6{fill:#fff;stroke-miterlimit:10;}.cls-2,.cls-4{stroke:#d1d3d4;}.cls-2{stroke-width:5px;}.cls-3{fill:#68c7bd;}.cls-4{stroke-width:4.84px;}.cls-5{fill:#ee2a7b;}.cls-6{stroke:#e6e7e8;stroke-width:0.6px;opacity:0.2;}</style></defs><ellipse class="cls-1" cx="365.5" cy="469.5" rx="181.5" ry="131.5"/><ellipse class="cls-1" cx="549.5" cy="462.5" rx="201.5" ry="131.5"/><path class="cls-2" d="M184,530l48,300s234.61,122,479.81,0L741,544S384,646,184,530Z"/><ellipse class="cls-1" cx="495" cy="322.5" rx="147" ry="131.5"/><path class="cls-3" d="M201.87,641.66s378.69,90.17,529.16,0l-5.55,54.4s-188.84,101.57-514.91,0Z"/><path class="cls-4" d="M183.72,498s339.52,104.25,553.86,17.38c0,0,36,24.12-10,46.12,0,0-249.65,95-543.89-23.5C183.72,538,155.1,506.5,183.72,498Z"/><path class="cls-5" d="M610,209c0,27.61-25.74,50-57.5,50S495,236.61,495,209s25.74-50,57.5-50a65.09,65.09,0,0,1,21,3.42C594.85,169.71,610,187.82,610,209Z"/><ellipse class="cls-6" cx="583.69" cy="189.02" rx="10.56" ry="22.05" transform="translate(-16.31 317.17) rotate(-30)"/><path class="cls-5" d="M556.09,172s42-42.46,57.23-17.59l9.68-15.2S587.32,109.42,556.09,172Z"/></svg>