<svg id="Layer_1" data-name="Layer 1" xmlns="http://www.w3.org/2000/svg" viewBox="0 0 1024 1024"><defs><style>.cls-1{fill:#e261a4;}.cls-2{fill:#68c7bd;}.cls-3,.cls-4{fill:#fff;stroke-linecap:round;stroke-linejoin:round;}.cls-3,.cls-4,.cls-5{stroke:#fff;opacity:0.5;}.cls-3{stroke-width:2.37px;}.cls-4{stroke-width:0.9px;}.cls-5{fill:none;stroke-miterlimit:10;stroke-width:1.99px;}</style></defs><path class="cls-1" d="M572.88,564.28a3.49,3.49,0,0,1-.12.54h-.17l-.56-.5.85-.05c8.5-35.25-14.36-74.9-55-92.27-32.44-13.86-67.29-9.7-90,8-4.77-23-21.61-87.79-49.46-26.22,0,0-33.72,2.73-20.54,36.54.1.3.22.6.33.89,0,0,0,0,0,0S311,554.21,403.4,525c-2.65,32.58,19.6,66.78,56.58,82.58,25.88,11.05,53.29,10.66,74.86,1l.53-.24v.84c-.3,83.29,44.71,25.29,44.71,25.29h0l.91.09c36.1,3.74,29.8-29.49,29.8-29.49C662.38,562.17,596.76,562.82,572.88,564.28ZM365,506.83a8.27,8.27,0,0,1,.35.81Z"/><path class="cls-2" d="M430.35,564.22l.37.86A8,8,0,0,1,430.35,564.22Z"/><path class="cls-2" d="M432.14,568.31l2.77,6.3C434.15,572.93,433.24,570.84,432.14,568.31Z"/><path class="cls-2" d="M435.22,575.33c.57,1.26,1.08,2.44,1.48,3.37Z"/><path class="cls-3" d="M400.77,456.11s34.07,15.25,6.64,42.6C407.41,498.71,421.4,475.92,400.77,456.11Z"/><path class="cls-4" d="M394.66,408.58s12.88,5.76,2.51,16.09C397.17,424.67,402.46,416.06,394.66,408.58Z"/><path class="cls-2" d="M535.37,608.33v.84l-.53-.6Z"/><path class="cls-5" d="M446,593.09s40,26.7,84.34,12.07"/></svg>