<svg id="Layer_1" data-name="Layer 1" xmlns="http://www.w3.org/2000/svg" viewBox="0 0 1024 1024"><defs><style>.cls-1{fill:#37b8ea;}.cls-2{fill:#a9d7e5;}.cls-3{opacity:0.5;}.cls-4{fill:#fff;}.cls-5{fill:#e261a4;}.cls-6{fill:#dc9ac0;}.cls-7{fill:#8062aa;}.cls-8{fill:#662d91;}</style></defs><ellipse class="cls-1" cx="312.59" cy="674.34" rx="65.45" ry="170.42" transform="matrix(0.07, -1, 1, 0.07, -382.39, 937.89)"/><ellipse class="cls-2" cx="316.21" cy="623.83" rx="77.94" ry="170.42" transform="translate(-328.65 894.59) rotate(-85.9)"/><ellipse class="cls-1" cx="314.87" cy="585.6" rx="65.45" ry="170.42" transform="translate(-291.76 857.76) rotate(-85.9)"/><g class="cls-3"><path class="cls-4" d="M423.73,548.21c17.15,6.07,38.78,17.49,48.07,33.95,6.66,11.7,2.93,24.16-7,32.61-22.82,19.28-69.81,24.52-99,26.14a368.43,368.43,0,0,1-43.2-.35.39.39,0,0,1-.4-.41.38.38,0,0,1,.35-.34c36.42-3.08,109.58-8.28,137.71-30.46,19.12-15.58,1.72-34.38-12.78-45.29a162.33,162.33,0,0,0-24.09-15.17.38.38,0,0,1,.33-.68Z"/></g><ellipse class="cls-5" cx="659.78" cy="693.06" rx="65.45" ry="170.42" transform="translate(-78.72 1301.56) rotate(-85.9)"/><ellipse class="cls-6" cx="663.39" cy="642.55" rx="77.94" ry="170.42" transform="translate(-24.98 1258.27) rotate(-85.9)"/><ellipse class="cls-5" cx="662.05" cy="604.32" rx="65.45" ry="170.42" transform="translate(11.91 1221.43) rotate(-85.9)"/><g class="cls-3"><path class="cls-4" d="M770.91,566.93c17.13,6.05,38.81,17.51,48.08,34,6.65,11.7,2.92,24.16-7,32.61-22.82,19.28-69.81,24.52-99,26.14a368.6,368.6,0,0,1-43.21-.35.38.38,0,0,1-.39-.41.37.37,0,0,1,.34-.34c36.42-3.08,109.58-8.28,137.71-30.46,19.12-15.58,1.72-34.38-12.78-45.29a162.7,162.7,0,0,0-24.09-15.18.37.37,0,0,1-.16-.5.38.38,0,0,1,.49-.17Z"/></g><ellipse class="cls-7" cx="471.78" cy="517.46" rx="65.45" ry="170.42" transform="translate(-78.12 951) rotate(-85.9)"/><ellipse class="cls-8" cx="475.39" cy="466.95" rx="77.94" ry="170.42" transform="translate(-24.37 907.71) rotate(-85.9)"/><ellipse class="cls-7" cx="474.05" cy="428.72" rx="65.45" ry="170.42" transform="translate(12.51 870.88) rotate(-85.9)"/><g class="cls-3"><path class="cls-4" d="M582.91,391.33c17.15,6.06,38.78,17.49,48.08,33.95,6.65,11.7,2.92,24.16-7,32.61-22.82,19.28-69.81,24.52-99,26.14a366.44,366.44,0,0,1-43.21-.36.37.37,0,0,1-.39-.4.36.36,0,0,1,.34-.34c36.42-3.08,109.58-8.28,137.71-30.46,19.12-15.58,1.72-34.38-12.78-45.29A162.7,162.7,0,0,0,582.58,392a.38.38,0,0,1-.16-.5.38.38,0,0,1,.49-.17Z"/></g></svg>