<svg id="Layer_1" data-name="Layer 1" xmlns="http://www.w3.org/2000/svg" viewBox="0 0 1024 1024"><defs><style>.cls-1{fill:#e261a4;}.cls-2{fill:#dc9ac0;}.cls-3{opacity:0.5;}.cls-4{fill:#fff;}</style></defs><ellipse class="cls-1" cx="501.78" cy="609.06" rx="65.45" ry="170.42" transform="translate(-141.63 1065.97) rotate(-85.9)"/><ellipse class="cls-2" cx="505.39" cy="558.55" rx="77.94" ry="170.42" transform="translate(-87.89 1022.68) rotate(-85.9)"/><ellipse class="cls-1" cx="504.05" cy="520.32" rx="65.45" ry="170.42" transform="translate(-51 985.85) rotate(-85.9)"/><g class="cls-3"><path class="cls-4" d="M612.91,482.93C630,489,651.72,500.44,661,516.88c6.65,11.7,2.92,24.16-7,32.61-22.82,19.28-69.81,24.52-99,26.14a368.6,368.6,0,0,1-43.21-.35.38.38,0,0,1-.39-.41.37.37,0,0,1,.34-.34c36.42-3.08,109.58-8.28,137.71-30.46,19.12-15.58,1.72-34.38-12.78-45.29a162.7,162.7,0,0,0-24.09-15.18.37.37,0,0,1-.16-.5.38.38,0,0,1,.49-.17Z"/></g></svg>