<svg id="Layer_1" data-name="Layer 1" xmlns="http://www.w3.org/2000/svg" viewBox="0 0 1024 1024"><defs><style>.cls-1{fill:#68c7bd;}.cls-1,.cls-2,.cls-3,.cls-4,.cls-5{stroke:#e6e7e8;stroke-miterlimit:10;stroke-width:1.08px;}.cls-2{fill:#e261a4;}.cls-3{fill:#fde441;}.cls-4{fill:#37b8ea;}.cls-5{fill:#8062aa;}</style></defs><rect class="cls-1" x="552.5" y="432.5" width="149" height="32" rx="12"/><rect class="cls-1" x="238.5" y="600.5" width="149" height="32" rx="12" transform="translate(-373.34 532.97) rotate(-56.14)"/><rect class="cls-1" x="673.5" y="805.5" width="149" height="32" rx="12" transform="translate(799.97 -288.3) rotate(45)"/><rect class="cls-1" x="182.5" y="159.5" width="149" height="32" rx="12" transform="translate(-52.84 204.64) rotate(-39.7)"/><rect class="cls-2" x="182.5" y="883.5" width="149" height="32" rx="12" transform="translate(-665.62 744.84) rotate(-64.54)"/><rect class="cls-2" x="701.5" y="615.5" width="149" height="32" rx="12" transform="translate(1193.81 -277.57) rotate(75.55)"/><rect class="cls-2" x="355.5" y="367.5" width="149" height="32" rx="12" transform="translate(-134.14 266.38) rotate(-30)"/><rect class="cls-2" x="599.5" y="143.5" width="149" height="32" rx="12" transform="translate(170.05 -315.63) rotate(30)"/><rect class="cls-3" x="777.5" y="954.5" width="149" height="32" rx="12" transform="translate(547.75 -284.57) rotate(27.65)"/><rect class="cls-3" x="748.5" y="295.5" width="149" height="32" rx="12"/><rect class="cls-3" x="67.5" y="422.5" width="149" height="32" rx="12" transform="translate(-247.36 191.83) rotate(-39.7)"/><rect class="cls-3" x="465.5" y="690.5" width="149" height="32" rx="12" transform="translate(-347.54 761.35) rotate(-56.14)"/><rect class="cls-4" x="770.5" y="59.5" width="149" height="32" rx="12" transform="translate(454.06 -677.42) rotate(57.45)"/><rect class="cls-4" x="466.5" y="912.5" width="149" height="32" rx="12" transform="translate(1265.29 134.65) rotate(72.6)"/><rect class="cls-4" x="35.5" y="98.5" width="149" height="32" rx="12" transform="translate(-17.42 209.23) rotate(-82.78)"/><rect class="cls-5" x="35.5" y="632.5" width="149" height="32" rx="12" transform="translate(695.95 349.65) rotate(72.6)"/><rect class="cls-5" x="437.5" y="98.5" width="149" height="32" rx="12" transform="translate(468.19 -408.31) rotate(72.6)"/><rect class="cls-5" x="849.5" y="493.5" width="149" height="32" rx="12" transform="translate(1004.54 -542.58) rotate(65.5)"/></svg>