<svg id="Layer_1" data-name="Layer 1" xmlns="http://www.w3.org/2000/svg" viewBox="0 0 1024 1024"><defs><style>.cls-1{fill:#37b8ea;}.cls-2{fill:#68c7bd;}.cls-3,.cls-6{fill:#fff;stroke-linecap:round;stroke-linejoin:round;}.cls-3,.cls-4,.cls-6{stroke:#fff;opacity:0.5;}.cls-3{stroke-width:2.37px;}.cls-4{fill:none;stroke-miterlimit:10;stroke-width:1.99px;}.cls-5{fill:#e261a4;}.cls-6{stroke-width:0.9px;}.cls-7{fill:#fde441;}.cls-8{fill:#8062aa;}</style></defs><path class="cls-1" d="M445.33,510.94c0,.18-.07.37-.12.54H445l-.56-.5.86-.05c8.49-35.25-14.37-74.9-55-92.27-32.44-13.86-67.28-9.7-90,8-4.78-23-21.62-87.79-49.46-26.22,0,0-33.72,2.73-20.55,36.54.1.3.22.6.34.89,0,0,0,0,0,0s-47.16,63,45.25,33.75c-2.65,32.58,19.6,66.78,56.58,82.58,25.87,11,53.28,10.66,74.85,1l.54-.24c0,.28,0,.56,0,.84-.29,83.29,44.71,25.29,44.71,25.29h0l.91.09c36.1,3.74,29.81-29.49,29.81-29.49C534.83,508.84,469.21,509.49,445.33,510.94ZM237.46,453.5c.14.29.26.57.35.8C237.7,454.07,237.59,453.8,237.46,453.5Z"/><path class="cls-2" d="M302.79,510.89c.11.22.23.52.37.86C303,511.45,302.9,511.17,302.79,510.89Z"/><path class="cls-2" d="M304.58,515l2.77,6.3C306.6,519.59,305.69,517.5,304.58,515Z"/><path class="cls-2" d="M307.67,522c.56,1.27,1.07,2.44,1.47,3.37C308.77,524.52,308.28,523.41,307.67,522Z"/><path class="cls-2" d="M309.18,525.43c.19.42.37.81.49,1.12C309.53,526.24,309.37,525.87,309.18,525.43Z"/><path class="cls-3" d="M273.21,402.77s34.07,15.25,6.64,42.6C279.85,445.37,293.84,422.58,273.21,402.77Z"/><path class="cls-2" d="M407.82,555c0,.28,0,.56,0,.84l-.53-.6Z"/><path class="cls-4" d="M316.48,539.09s40,26.7,84.34,12.07"/><path class="cls-5" d="M809.88,337.28a3.49,3.49,0,0,1-.12.54h-.17l-.56-.5.85-.05c8.5-35.25-14.36-74.9-55-92.27-32.44-13.86-67.29-9.7-90,8-4.77-23-21.61-87.79-49.46-26.22,0,0-33.72,2.73-20.54,36.54.1.3.22.6.33.89,0,0,0,0,0,0S548,327.21,640.4,298c-2.65,32.58,19.6,66.78,56.58,82.58,25.88,11.05,53.29,10.66,74.86,1l.53-.24v.84c-.3,83.29,44.71,25.29,44.71,25.29h0l.91.09c36.1,3.74,29.8-29.49,29.8-29.49C899.38,335.17,833.76,335.82,809.88,337.28ZM602,279.83a8.27,8.27,0,0,1,.35.81Z"/><path class="cls-2" d="M667.35,337.22l.37.86A8,8,0,0,1,667.35,337.22Z"/><path class="cls-2" d="M669.14,341.31l2.77,6.3C671.15,345.93,670.24,343.84,669.14,341.31Z"/><path class="cls-2" d="M672.22,348.33c.57,1.26,1.08,2.44,1.48,3.37Z"/><path class="cls-3" d="M637.77,229.11s34.07,15.25,6.64,42.6C644.41,271.71,658.4,248.92,637.77,229.11Z"/><path class="cls-6" d="M631.66,181.58s12.88,5.76,2.51,16.09C634.17,197.67,639.46,189.06,631.66,181.58Z"/><path class="cls-2" d="M772.37,381.33v.84l-.53-.6Z"/><path class="cls-4" d="M683,366.09s40,26.7,84.34,12.07"/><path class="cls-7" d="M798,623.62a4.71,4.71,0,0,1-.12.54h-.17l-.56-.5.85,0c8.5-35.25-14.36-74.9-55-92.27-32.44-13.86-67.29-9.7-90,8-4.77-23-21.61-87.8-49.46-26.23,0,0-33.72,2.73-20.54,36.55.1.29.22.59.33.88v0s-47.16,63,45.24,33.75c-2.65,32.58,19.6,66.78,56.58,82.58,25.88,11.05,53.29,10.66,74.85,1l.54-.23v.83c-.3,83.29,44.71,25.29,44.71,25.29h0l.9.09c36.11,3.74,29.81-29.49,29.81-29.49C887.45,621.52,821.83,622.17,798,623.62ZM590.08,566.18a8.27,8.27,0,0,1,.35.81Z"/><path class="cls-2" d="M655.42,623.57l.37.86A7.68,7.68,0,0,1,655.42,623.57Z"/><path class="cls-2" d="M657.21,627.65,660,634C659.22,632.27,658.31,630.18,657.21,627.65Z"/><path class="cls-2" d="M660.29,634.67c.57,1.27,1.07,2.44,1.48,3.37Z"/><path class="cls-2" d="M661.8,638.11c.2.42.37.81.49,1.12C662.15,638.92,662,638.55,661.8,638.11Z"/><path class="cls-3" d="M625.84,515.45s34.07,15.25,6.63,42.6C632.47,558.05,646.46,535.26,625.84,515.45Z"/><path class="cls-2" d="M760.44,667.68v.83l-.54-.6Z"/><path class="cls-4" d="M671.09,651.1s40,26.71,84.34,12.07"/><path class="cls-8" d="M529.65,850.17a4.71,4.71,0,0,1-.12.54h-.17l-.56-.5.85-.05c8.5-35.25-14.36-74.9-55-92.27-32.44-13.86-67.29-9.7-90,8-4.77-23-21.61-87.79-49.46-26.22,0,0-33.72,2.73-20.54,36.54.1.3.22.6.33.89v0s-47.16,63,45.24,33.75c-2.65,32.58,19.6,66.78,56.58,82.58,25.88,11,53.29,10.66,74.85,1l.54-.23c0,.27,0,.55,0,.83-.29,83.29,44.72,25.29,44.72,25.29h0l.9.09c36.11,3.74,29.81-29.49,29.81-29.49C619.15,848.07,553.53,848.72,529.65,850.17ZM321.78,792.73a8.19,8.19,0,0,1,.35.8Z"/><path class="cls-2" d="M387.12,850.12c.1.22.22.52.36.86C387.34,850.68,387.22,850.4,387.12,850.12Z"/><path class="cls-2" d="M388.91,854.2c.85,1.95,1.86,4.23,2.77,6.3C390.92,858.82,390,856.73,388.91,854.2Z"/><path class="cls-2" d="M392,861.22l1.48,3.37Z"/><path class="cls-2" d="M393.5,864.66c.19.42.37.81.49,1.12Z"/><path class="cls-3" d="M357.54,742s34.06,15.25,6.63,42.6C364.17,784.6,378.16,761.81,357.54,742Z"/><path class="cls-2" d="M492.14,894.23c0,.27,0,.55,0,.83l-.53-.6Z"/><path class="cls-4" d="M402.79,877.65s40,26.71,84.34,12.07"/><path class="cls-2" d="M437.37,171.57a3.25,3.25,0,0,1-.12.54l-.17,0c-.18-.18-.37-.34-.56-.51l.85-.05c8.5-35.24-14.36-74.89-55-92.27-32.44-13.86-67.29-9.7-90,8-4.77-23-21.61-87.8-49.46-26.23,0,0-33.72,2.74-20.54,36.55.1.29.22.59.33.88,0,0,0,0,0,0s-47.16,63,45.24,33.75c-2.65,32.58,19.6,66.78,56.58,82.58,25.88,11.05,53.29,10.66,74.86,1l.53-.24v.83c-.3,83.29,44.71,25.29,44.71,25.29h0l.91.09c36.1,3.74,29.8-29.48,29.8-29.48C526.87,169.47,461.25,170.12,437.37,171.57ZM229.5,114.13a8.27,8.27,0,0,1,.35.81C229.75,114.7,229.64,114.43,229.5,114.13Z"/><path class="cls-2" d="M294.84,171.52c.1.23.23.52.37.86C295.07,172.08,294.94,171.8,294.84,171.52Z"/><path class="cls-2" d="M296.63,175.61c.86,1.94,1.86,4.22,2.77,6.29C298.65,180.22,297.73,178.13,296.63,175.61Z"/><path class="cls-2" d="M299.72,182.62c.56,1.27,1.07,2.44,1.47,3.37C300.82,185.15,300.33,184,299.72,182.62Z"/><path class="cls-2" d="M301.22,186.06c.2.42.37.81.5,1.13C301.58,186.87,301.42,186.5,301.22,186.06Z"/><path class="cls-3" d="M265.26,63.4s34.07,15.25,6.64,42.6C271.9,106,285.89,83.22,265.26,63.4Z"/><path class="cls-2" d="M399.86,215.63v.83l-.53-.59Z"/><path class="cls-4" d="M311.17,199.05s40,26.71,84.35,12.07"/></svg>