<svg id="Layer_1" data-name="Layer 1" xmlns="http://www.w3.org/2000/svg" viewBox="0 0 150 150"><defs><style>.cls-1{fill:#37b8ea;}.cls-2{fill:#68c7bd;}.cls-3{fill:#fff;stroke-linecap:round;stroke-linejoin:round;stroke-width:1.21px;}.cls-3,.cls-4{stroke:#fff;opacity:0.5;}.cls-4{fill:none;stroke-miterlimit:10;stroke-width:1.02px;}</style></defs><path class="cls-1" d="M118.84,101a1.4,1.4,0,0,1-.06.28h-.09l-.28-.25.43,0c4.34-18-7.33-38.26-28.11-47.14-16.57-7.08-34.38-4.95-46,4.11-2.44-11.74-11-44.85-25.27-13.4,0,0-17.23,1.4-10.5,18.67l.17.45h0s-24.1,32.18,23.11,17.24c-1.35,16.65,10,34.12,28.91,42.19,13.22,5.65,27.22,5.45,38.24.52l.27-.12v.42c-.15,42.56,22.84,12.92,22.84,12.92h0l.47.05c18.44,1.91,15.23-15.07,15.23-15.07C164.57,99.9,131,100.23,118.84,101ZM12.65,71.63l.18.41C12.77,71.92,12.72,71.78,12.65,71.63Z"/><path class="cls-2" d="M46,100.94l.18.44A4.07,4.07,0,0,1,46,100.94Z"/><path class="cls-2" d="M46.94,103l1.42,3.22C48,105.39,47.51,104.32,46.94,103Z"/><path class="cls-2" d="M48.52,106.62c.29.64.55,1.24.75,1.72Z"/><path class="cls-2" d="M49.29,108.37c.1.22.19.42.25.58Z"/><path class="cls-3" d="M30.91,45.71s17.41,7.79,3.4,21.76C34.31,67.47,41.45,55.83,30.91,45.71Z"/><path class="cls-2" d="M99.68,123.48v.42l-.27-.3Z"/><path class="cls-4" d="M53,115.35S73.44,129,96.11,121.52"/></svg>