<svg id="Layer_1" data-name="Layer 1" xmlns="http://www.w3.org/2000/svg" viewBox="0 0 145.07 115.53"><defs><style>.cls-1{fill:#37b8ea;}.cls-2{fill:#68c7bd;}.cls-3{fill:#fff;stroke-linecap:round;stroke-linejoin:round;stroke-width:1.21px;}.cls-3,.cls-4{stroke:#fff;isolation:isolate;opacity:0.5;}.cls-4{fill:none;stroke-miterlimit:10;stroke-width:1.02px;}</style></defs><path class="cls-1" d="M118.84,86.83a1.27,1.27,0,0,1-.06.28h-.09l-.28-.25h.43c4.34-18-7.33-38.26-28.11-47.14-16.57-7.08-34.38-4.95-46,4.11C42.29,32.09,33.73-1,19.46,30.43c0,0-17.23,1.4-10.5,18.67l.17.45h0S-15,81.73,32.24,66.79c-1.35,16.65,10,34.12,28.91,42.19,13.22,5.65,27.22,5.45,38.24.52l.27-.12v.42c-.15,42.56,22.84,12.92,22.84,12.92h0l.47,0c18.44,1.91,15.23-15.07,15.23-15.07C164.57,85.73,131,86.06,118.84,86.83ZM12.65,57.46l.18.41C12.77,57.75,12.72,57.61,12.65,57.46Z" transform="translate(-2.98 -17.23)"/><path class="cls-2" d="M46,86.77l.18.44A3.38,3.38,0,0,1,46,86.77Z" transform="translate(-2.98 -17.23)"/><path class="cls-2" d="M46.94,88.83l1.42,3.22C48,91.22,47.51,90.15,46.94,88.83Z" transform="translate(-2.98 -17.23)"/><path class="cls-2" d="M48.52,92.45c.29.64.55,1.24.75,1.72Z" transform="translate(-2.98 -17.23)"/><path class="cls-2" d="M49.29,94.2c.1.22.19.42.25.58Z" transform="translate(-2.98 -17.23)"/><path class="cls-3" d="M30.91,31.54s17.41,7.79,3.4,21.76C34.31,53.3,41.45,41.66,30.91,31.54Z" transform="translate(-2.98 -17.23)"/><path class="cls-2" d="M99.68,109.31v.42l-.27-.3Z" transform="translate(-2.98 -17.23)"/><path class="cls-4" d="M53,101.18s20.44,13.65,43.11,6.17" transform="translate(-2.98 -17.23)"/></svg>