<svg id="Layer_1" data-name="Layer 1" xmlns="http://www.w3.org/2000/svg" viewBox="0 0 150 150"><defs><style>.cls-1{fill:#d6a46f;opacity:0.9;}.cls-2{fill:#e261a4;}.cls-3{fill:#fff;}.cls-4,.cls-6{fill:#37b8ea;}.cls-10,.cls-4,.cls-5,.cls-6,.cls-7,.cls-8,.cls-9{stroke:#e6e7e8;stroke-miterlimit:10;}.cls-4{stroke-width:0.13px;}.cls-5{fill:#fde441;stroke-width:0.15px;}.cls-6{stroke-width:0.12px;}.cls-7,.cls-9{fill:#9063a8;}.cls-7{stroke-width:0.12px;}.cls-8{fill:#68c7bd;}.cls-8,.cls-9{stroke-width:0.09px;}.cls-10{fill:#8062aa;stroke-width:0.12px;}</style></defs><circle class="cls-1" cx="75" cy="79.35" r="66"/><path class="cls-2" d="M132.78,74.41a19.69,19.69,0,0,0-5.56-13.82,20.55,20.55,0,0,0,.12-2.23c0-10.64-8.2-19.26-18.31-19.26h-.38c-1.64-8.86-9.06-15.56-18-15.56a17.73,17.73,0,0,0-11.88,4.6,17.89,17.89,0,0,0-13.64-6.41A18.4,18.4,0,0,0,47.92,34.5a17.36,17.36,0,0,0-3.83-.42C34,34.08,25.78,42.7,25.78,53.34A20.07,20.07,0,0,0,26,56.26a19.49,19.49,0,0,0-8.6,16.34,20,20,0,0,0,2.45,9.63,19.89,19.89,0,0,0-2.45,9.62c0,9.23,6.16,16.94,14.39,18.82.86,9.8,8.7,17.48,18.24,17.48A17.53,17.53,0,0,0,56.35,127a18.19,18.19,0,0,0,16,9.82,17.9,17.9,0,0,0,13.82-6.62,17.5,17.5,0,0,0,8.16,2c10.11,0,18.31-8.62,18.31-19.26h0c10.12,0,18.31-8.62,18.31-19.25a20,20,0,0,0-1.64-8A19.9,19.9,0,0,0,132.78,74.41ZM94.3,93.67a17.9,17.9,0,0,0-13.82,6.62A17.47,17.47,0,0,0,66,99.46a18.47,18.47,0,0,0-12.06-9.39,19.66,19.66,0,0,0-2.37-7.84A20.24,20.24,0,0,0,53.8,69.67a19.19,19.19,0,0,0,7.54-9.84,17.2,17.2,0,0,0,3.82.42A17.73,17.73,0,0,0,77,55.65a17.86,17.86,0,0,0,13.64,6.41h.38a19.49,19.49,0,0,0,5.21,10.11,18.07,18.07,0,0,0,7.51,4.64,18.77,18.77,0,0,0-6,5.59,19.83,19.83,0,0,0-3.46,11.27Z"/><circle class="cls-3" cx="74.99" cy="76.12" r="26.87"/><rect class="cls-4" x="91.97" y="47.2" width="18.03" height="3.87" rx="1.45" transform="matrix(0.54, 0.84, -0.84, 0.54, 88.08, -62.42)"/><rect class="cls-5" x="21.5" y="74.82" width="20.97" height="4.5" rx="1.69" transform="translate(-48.43 54.8) rotate(-51.99)"/><rect class="cls-5" x="51.69" y="113.39" width="20.97" height="4.5" rx="1.69" transform="translate(-49.49 46.58) rotate(-30)"/><rect class="cls-5" x="63.43" y="36.58" width="20.97" height="4.5" rx="1.69" transform="translate(-9.28 45.86) rotate(-32.55)"/><rect class="cls-6" x="36.87" y="50.07" width="16.57" height="3.56" rx="1.33" transform="translate(102.27 13.57) rotate(97.22)"/><rect class="cls-5" x="105.53" y="64.25" width="20.97" height="4.5" rx="1.69" transform="translate(-17.71 66.91) rotate(-30)"/><rect class="cls-7" x="105.74" y="84.83" width="17.06" height="3.66" rx="1.37" transform="translate(85.78 -53.89) rotate(41.37)"/><rect class="cls-5" x="94.96" y="105.51" width="20.97" height="4.5" rx="1.69" transform="translate(-39.75 67.16) rotate(-30)"/><rect class="cls-8" x="74.33" y="119.03" width="12.91" height="2.77" rx="1.04" transform="translate(-62.67 141.59) rotate(-64.54)"/><rect class="cls-9" x="52.7" y="33.49" width="12.91" height="2.77" rx="1.04" transform="translate(2.23 73.29) rotate(-64.54)"/><rect class="cls-10" x="31.89" y="97.96" width="16.4" height="3.52" rx="1.32"/></svg>