<svg id="Layer_1" data-name="Layer 1" xmlns="http://www.w3.org/2000/svg" viewBox="0 0 150 150"><defs><style>.cls-1{fill:#e261a4;}.cls-2,.cls-4,.cls-6{fill:#fff;stroke-miterlimit:10;}.cls-2,.cls-4{stroke:#d1d3d4;}.cls-2{stroke-width:0.95px;}.cls-3{fill:#68c7bd;}.cls-4{stroke-width:0.92px;}.cls-5{fill:#ee2a7b;}.cls-6{stroke:#e6e7e8;stroke-width:0.11px;opacity:0.2;}</style></defs><ellipse class="cls-1" cx="56.68" cy="67.29" rx="34.59" ry="25.06"/><ellipse class="cls-1" cx="91.75" cy="65.96" rx="38.4" ry="25.06"/><path class="cls-2" d="M22.1,78.82,31.24,136s44.71,23.24,91.43,0l5.57-54.5S60.21,100.92,22.1,78.82Z"/><ellipse class="cls-1" cx="81.36" cy="39.28" rx="28.01" ry="25.06"/><path class="cls-3" d="M25.5,100.1s72.16,17.18,100.84,0l-1.06,10.36s-36,19.36-98.12,0Z"/><path class="cls-4" d="M22,72.72S86.74,92.59,127.59,76c0,0,6.86,4.6-1.9,8.79,0,0-47.58,18.1-103.65-4.48C22,80.34,16.59,74.34,22,72.72Z"/><path class="cls-5" d="M103.27,17.65c0,5.26-4.9,9.53-11,9.53s-11-4.27-11-9.53,4.91-9.53,11-9.53a12.41,12.41,0,0,1,4,.65C100.39,10.16,103.27,13.61,103.27,17.65Z"/><ellipse class="cls-6" cx="98.26" cy="13.84" rx="2.01" ry="4.2" transform="translate(6.24 50.99) rotate(-30)"/><path class="cls-5" d="M93,10.6s8-8.09,10.91-3.35l1.84-2.9S99-1.33,93,10.6Z"/></svg>