<svg id="Layer_1" data-name="Layer 1" xmlns="http://www.w3.org/2000/svg" viewBox="0 0 145.66 116.02"><defs><style>.cls-1{fill:#8062aa;}.cls-2{fill:#68c7bd;}.cls-3{fill:#fff;stroke-linecap:round;stroke-linejoin:round;stroke-width:1.22px;}.cls-3,.cls-4{stroke:#fff;isolation:isolate;opacity:0.5;}.cls-4{fill:none;stroke-miterlimit:10;stroke-width:1.02px;}</style></defs><path class="cls-1" d="M118.66,86.88a1.4,1.4,0,0,1-.06.28h-.09l-.29-.26h.44c4.34-18-7.37-38.4-28.23-47.31-16.64-7.11-34.52-5-46.17,4.12-2.45-11.83-11.09-45-25.37-13.46,0,0-17.3,1.41-10.54,18.75.05.15.11.31.17.46h0s-24.2,32.29,23.2,17.3c-1.36,16.71,10.06,34.26,29,42.36,13.27,5.67,27.33,5.47,38.39.52l.28-.12V110c-.15,42.72,22.93,13,22.93,13h.46c18.55,1.93,15.32-15.07,15.32-15.07C164.58,85.88,130.91,86.17,118.66,86.88ZM12,57.45q.11.22.18.42A1.32,1.32,0,0,0,12,57.45Z" transform="translate(-2.34 -16.99)"/><path class="cls-2" d="M45.54,86.88c.06.12.12.27.19.44A4.48,4.48,0,0,1,45.54,86.88Z" transform="translate(-2.34 -16.99)"/><path class="cls-2" d="M46.46,89c.44,1,1,2.17,1.42,3.23Z" transform="translate(-2.34 -16.99)"/><path class="cls-2" d="M48.05,92.59c.28.65.55,1.25.75,1.73C48.61,93.88,48.36,93.32,48.05,92.59Z" transform="translate(-2.34 -16.99)"/><path class="cls-2" d="M48.82,94.35c.1.22.19.42.25.58Z" transform="translate(-2.34 -16.99)"/><path class="cls-3" d="M30.37,31.43s17.48,7.82,3.4,21.85C33.77,53.28,41,41.59,30.37,31.43Z" transform="translate(-2.34 -16.99)"/><path class="cls-2" d="M99.42,109.52V110c-.09-.1-.18-.21-.28-.31Z" transform="translate(-2.34 -16.99)"/><path class="cls-4" d="M53.58,101s20.51,13.7,43.27,6.19" transform="translate(-2.34 -16.99)"/><ellipse class="cls-1" cx="48.66" cy="70.89" rx="7.5" ry="9.5"/></svg>