<svg id="Layer_1" data-name="Layer 1" xmlns="http://www.w3.org/2000/svg" viewBox="0 0 150 150"><defs><style>.cls-1{fill:#8062aa;}.cls-2{fill:#68c7bd;}.cls-3{fill:#fff;stroke-linecap:round;stroke-linejoin:round;stroke-width:1.22px;}.cls-3,.cls-4{stroke:#fff;opacity:0.5;}.cls-4{fill:none;stroke-miterlimit:10;stroke-width:1.02px;}</style></defs><path class="cls-1" d="M118.66,102a1.4,1.4,0,0,1-.06.28h-.09l-.29-.26.44,0C123,84,111.29,63.62,90.43,54.71c-16.64-7.11-34.52-5-46.17,4.12C41.81,47,33.17,13.79,18.89,45.37c0,0-17.3,1.41-10.54,18.75.05.15.11.31.17.46a0,0,0,0,0,0,0S-15.68,96.87,31.72,81.88c-1.36,16.71,10.06,34.26,29,42.36,13.27,5.67,27.33,5.47,38.39.52l.28-.12v.43c-.15,42.72,22.93,13,22.93,13h0l.46,0C141.33,140,138.1,123,138.1,123,164.58,101,130.91,101.29,118.66,102ZM12,72.57q.11.23.18.42C12.15,72.86,12.1,72.73,12,72.57Z"/><path class="cls-2" d="M45.54,102c.06.12.12.27.19.44C45.66,102.3,45.6,102.16,45.54,102Z"/><path class="cls-2" d="M46.46,104.11c.44,1,1,2.17,1.42,3.23Z"/><path class="cls-2" d="M48.05,107.71c.28.65.55,1.25.75,1.73C48.61,109,48.36,108.44,48.05,107.71Z"/><path class="cls-2" d="M48.82,109.47c.1.22.19.42.25.58Z"/><path class="cls-3" d="M30.37,46.55s17.48,7.82,3.4,21.85C33.77,68.4,41,56.71,30.37,46.55Z"/><path class="cls-2" d="M99.42,124.64v.43c-.09-.1-.18-.21-.28-.31Z"/><path class="cls-4" d="M53.58,116.14s20.51,13.7,43.27,6.19"/><ellipse class="cls-1" cx="51" cy="103" rx="7.5" ry="9.5"/></svg>